<svg xmlns="http://www.w3.org/2000/svg" width="960" height="640" viewBox="0 0 960 640">
<rect width="100%" height="100%" fill="#fffdf8"/>
<text x="480.0" y="36" text-anchor="middle" font-size="24" font-family="Arial">Задание 3а: sin(x)</text>
<rect x="90" y="70" width="650" height="480" fill="#ffffff" stroke="#d1d5db"/>
<line x1="-102.25" y1="70" x2="-102.25" y2="550" stroke="#e5e7eb" stroke-width="1"/>
<text x="-102.25" y="578" text-anchor="middle" font-size="14" font-family="Arial">-10</text>
<line x1="156.37" y1="70" x2="156.37" y2="550" stroke="#e5e7eb" stroke-width="1"/>
<text x="156.37" y="578" text-anchor="middle" font-size="14" font-family="Arial">-5</text>
<line x1="415.00" y1="70" x2="415.00" y2="550" stroke="#e5e7eb" stroke-width="1"/>
<text x="415.00" y="578" text-anchor="middle" font-size="14" font-family="Arial">0</text>
<line x1="673.63" y1="70" x2="673.63" y2="550" stroke="#e5e7eb" stroke-width="1"/>
<text x="673.63" y="578" text-anchor="middle" font-size="14" font-family="Arial">5</text>
<line x1="932.25" y1="70" x2="932.25" y2="550" stroke="#e5e7eb" stroke-width="1"/>
<text x="932.25" y="578" text-anchor="middle" font-size="14" font-family="Arial">10</text>
<line x1="90" y1="550.00" x2="740" y2="550.00" stroke="#e5e7eb" stroke-width="1"/>
<text x="78" y="555.00" text-anchor="end" font-size="14" font-family="Arial">-1</text>
<line x1="90" y1="430.00" x2="740" y2="430.00" stroke="#e5e7eb" stroke-width="1"/>
<text x="78" y="435.00" text-anchor="end" font-size="14" font-family="Arial">-0.5</text>
<line x1="90" y1="310.00" x2="740" y2="310.00" stroke="#e5e7eb" stroke-width="1"/>
<text x="78" y="315.00" text-anchor="end" font-size="14" font-family="Arial">0</text>
<line x1="90" y1="190.00" x2="740" y2="190.00" stroke="#e5e7eb" stroke-width="1"/>
<text x="78" y="195.00" text-anchor="end" font-size="14" font-family="Arial">0.5</text>
<line x1="90" y1="70.00" x2="740" y2="70.00" stroke="#e5e7eb" stroke-width="1"/>
<text x="78" y="75.00" text-anchor="end" font-size="14" font-family="Arial">1</text>
<text x="415.0" y="616" text-anchor="middle" font-size="18" font-family="Arial">x</text>
<text x="28" y="310.0" text-anchor="middle" font-size="18" font-family="Arial" transform="rotate(-90 28 310.0)">y</text>
<polyline fill="none" stroke="#0b6e4f" stroke-width="3" points="90.00,310.00 91.63,302.44 93.26,294.89 94.89,287.36 96.52,279.84 98.15,272.36 99.77,264.92 101.40,257.52 103.03,250.17 104.66,242.88 106.29,235.66 107.92,228.51 109.55,221.44 111.18,214.46 112.81,207.57 114.44,200.79 116.07,194.11 117.69,187.55 119.32,181.11 120.95,174.80 122.58,168.62 124.21,162.59 125.84,156.70 127.47,150.96 129.10,145.38 130.73,139.96 132.36,134.71 133.98,129.63 135.61,124.74 137.24,120.03 138.87,115.50 140.50,111.17 142.13,107.04 143.76,103.10 145.39,99.38 147.02,95.86 148.65,92.55 150.28,89.46 151.90,86.59 153.53,83.94 155.16,81.51 156.79,79.31 158.42,77.34 160.05,75.60 161.68,74.09 163.31,72.82 164.94,71.78 166.57,70.98 168.20,70.42 169.82,70.09 171.45,70.00 173.08,70.15 174.71,70.54 176.34,71.16 177.97,72.02 179.60,73.12 181.23,74.45 182.86,76.02 184.49,77.81 186.12,79.84 187.74,82.10 189.37,84.58 191.00,87.29 192.63,90.21 194.26,93.36 195.89,96.72 197.52,100.29 199.15,104.07 200.78,108.05 202.41,112.23 204.04,116.61 205.66,121.19 207.29,125.95 208.92,130.89 210.55,136.01 212.18,141.30 213.81,146.76 215.44,152.38 217.07,158.16 218.70,164.08 220.33,170.16 221.95,176.37 223.58,182.71 225.21,189.18 226.84,195.77 228.47,202.48 230.10,209.28 231.73,216.19 233.36,223.20 234.99,230.29 236.62,237.45 238.25,244.69 239.87,252.00 241.50,259.36 243.13,266.77 244.76,274.23 246.39,281.72 248.02,289.24 249.65,296.78 251.28,304.33 252.91,311.89 254.54,319.45 256.17,326.99 257.79,334.52 259.42,342.03 261.05,349.50 262.68,356.94 264.31,364.33 265.94,371.66 267.57,378.93 269.20,386.14 270.83,393.27 272.46,400.31 274.09,407.27 275.71,414.13 277.34,420.89 278.97,427.54 280.60,434.07 282.23,440.48 283.86,446.75 285.49,452.90 287.12,458.90 288.75,464.75 290.38,470.45 292.01,475.99 293.63,481.37 295.26,486.58 296.89,491.61 298.52,496.46 300.15,501.12 301.78,505.60 303.41,509.88 305.04,513.97 306.67,517.85 308.30,521.52 309.92,524.99 311.55,528.24 313.18,531.28 314.81,534.09 316.44,536.69 318.07,539.06 319.70,541.20 321.33,543.11 322.96,544.80 324.59,546.25 326.22,547.46 327.84,548.44 329.47,549.18 331.10,549.69 332.73,549.96 334.36,549.99 335.99,549.78 337.62,549.33 339.25,548.65 340.88,547.73 342.51,546.57 344.14,545.18 345.76,543.56 347.39,541.70 349.02,539.62 350.65,537.30 352.28,534.76 353.91,532.00 355.54,529.02 357.17,525.82 358.80,522.41 360.43,518.79 362.06,514.96 363.68,510.92 365.31,506.69 366.94,502.26 368.57,497.64 370.20,492.84 371.83,487.85 373.46,482.69 375.09,477.35 376.72,471.85 378.35,466.19 379.97,460.38 381.60,454.41 383.23,448.30 384.86,442.06 386.49,435.68 388.12,429.18 389.75,422.56 391.38,415.83 393.01,409.00 394.64,402.06 396.27,395.04 397.89,387.93 399.52,380.74 401.15,373.48 402.78,366.17 404.41,358.79 406.04,351.37 407.67,343.90 409.30,336.40 410.93,328.88 412.56,321.33 414.19,313.78 415.81,306.22 417.44,298.67 419.07,291.12 420.70,283.60 422.33,276.10 423.96,268.63 425.59,261.21 427.22,253.83 428.85,246.52 430.48,239.26 432.11,232.07 433.73,224.96 435.36,217.94 436.99,211.00 438.62,204.17 440.25,197.44 441.88,190.82 443.51,184.32 445.14,177.94 446.77,171.70 448.40,165.59 450.03,159.62 451.65,153.81 453.28,148.15 454.91,142.65 456.54,137.31 458.17,132.15 459.80,127.16 461.43,122.36 463.06,117.74 464.69,113.31 466.32,109.08 467.94,105.04 469.57,101.21 471.20,97.59 472.83,94.18 474.46,90.98 476.09,88.00 477.72,85.24 479.35,82.70 480.98,80.38 482.61,78.30 484.24,76.44 485.86,74.82 487.49,73.43 489.12,72.27 490.75,71.35 492.38,70.67 494.01,70.22 495.64,70.01 497.27,70.04 498.90,70.31 500.53,70.82 502.16,71.56 503.78,72.54 505.41,73.75 507.04,75.20 508.67,76.89 510.30,78.80 511.93,80.94 513.56,83.31 515.19,85.91 516.82,88.72 518.45,91.76 520.08,95.01 521.70,98.48 523.33,102.15 524.96,106.03 526.59,110.12 528.22,114.40 529.85,118.88 531.48,123.54 533.11,128.39 534.74,133.42 536.37,138.63 537.99,144.01 539.62,149.55 541.25,155.25 542.88,161.10 544.51,167.10 546.14,173.25 547.77,179.52 549.40,185.93 551.03,192.46 552.66,199.11 554.29,205.87 555.91,212.73 557.54,219.69 559.17,226.73 560.80,233.86 562.43,241.07 564.06,248.34 565.69,255.67 567.32,263.06 568.95,270.50 570.58,277.97 572.21,285.48 573.83,293.01 575.46,300.55 577.09,308.11 578.72,315.67 580.35,323.22 581.98,330.76 583.61,338.28 585.24,345.77 586.87,353.23 588.50,360.64 590.13,368.00 591.75,375.31 593.38,382.55 595.01,389.71 596.64,396.80 598.27,403.81 599.90,410.72 601.53,417.52 603.16,424.23 604.79,430.82 606.42,437.29 608.05,443.63 609.67,449.84 611.30,455.92 612.93,461.84 614.56,467.62 616.19,473.24 617.82,478.70 619.45,483.99 621.08,489.11 622.71,494.05 624.34,498.81 625.96,503.39 627.59,507.77 629.22,511.95 630.85,515.93 632.48,519.71 634.11,523.28 635.74,526.64 637.37,529.79 639.00,532.71 640.63,535.42 642.26,537.90 643.88,540.16 645.51,542.19 647.14,543.98 648.77,545.55 650.40,546.88 652.03,547.98 653.66,548.84 655.29,549.46 656.92,549.85 658.55,550.00 660.18,549.91 661.80,549.58 663.43,549.02 665.06,548.22 666.69,547.18 668.32,545.91 669.95,544.40 671.58,542.66 673.21,540.69 674.84,538.49 676.47,536.06 678.10,533.41 679.72,530.54 681.35,527.45 682.98,524.14 684.61,520.62 686.24,516.90 687.87,512.96 689.50,508.83 691.13,504.50 692.76,499.97 694.39,495.26 696.02,490.37 697.64,485.29 699.27,480.04 700.90,474.62 702.53,469.04 704.16,463.30 705.79,457.41 707.42,451.38 709.05,445.20 710.68,438.89 712.31,432.45 713.93,425.89 715.56,419.21 717.19,412.43 718.82,405.54 720.45,398.56 722.08,391.49 723.71,384.34 725.34,377.12 726.97,369.83 728.60,362.48 730.23,355.08 731.85,347.64 733.48,340.16 735.11,332.64 736.74,325.11 738.37,317.56 740.00,310.00"/>
<circle cx="90.00" cy="310.00" r="3.5" fill="#0b6e4f"/>
<circle cx="91.63" cy="302.44" r="3.5" fill="#0b6e4f"/>
<circle cx="93.26" cy="294.89" r="3.5" fill="#0b6e4f"/>
<circle cx="94.89" cy="287.36" r="3.5" fill="#0b6e4f"/>
<circle cx="96.52" cy="279.84" r="3.5" fill="#0b6e4f"/>
<circle cx="98.15" cy="272.36" r="3.5" fill="#0b6e4f"/>
<circle cx="99.77" cy="264.92" r="3.5" fill="#0b6e4f"/>
<circle cx="101.40" cy="257.52" r="3.5" fill="#0b6e4f"/>
<circle cx="103.03" cy="250.17" r="3.5" fill="#0b6e4f"/>
<circle cx="104.66" cy="242.88" r="3.5" fill="#0b6e4f"/>
<circle cx="106.29" cy="235.66" r="3.5" fill="#0b6e4f"/>
<circle cx="107.92" cy="228.51" r="3.5" fill="#0b6e4f"/>
<circle cx="109.55" cy="221.44" r="3.5" fill="#0b6e4f"/>
<circle cx="111.18" cy="214.46" r="3.5" fill="#0b6e4f"/>
<circle cx="112.81" cy="207.57" r="3.5" fill="#0b6e4f"/>
<circle cx="114.44" cy="200.79" r="3.5" fill="#0b6e4f"/>
<circle cx="116.07" cy="194.11" r="3.5" fill="#0b6e4f"/>
<circle cx="117.69" cy="187.55" r="3.5" fill="#0b6e4f"/>
<circle cx="119.32" cy="181.11" r="3.5" fill="#0b6e4f"/>
<circle cx="120.95" cy="174.80" r="3.5" fill="#0b6e4f"/>
<circle cx="122.58" cy="168.62" r="3.5" fill="#0b6e4f"/>
<circle cx="124.21" cy="162.59" r="3.5" fill="#0b6e4f"/>
<circle cx="125.84" cy="156.70" r="3.5" fill="#0b6e4f"/>
<circle cx="127.47" cy="150.96" r="3.5" fill="#0b6e4f"/>
<circle cx="129.10" cy="145.38" r="3.5" fill="#0b6e4f"/>
<circle cx="130.73" cy="139.96" r="3.5" fill="#0b6e4f"/>
<circle cx="132.36" cy="134.71" r="3.5" fill="#0b6e4f"/>
<circle cx="133.98" cy="129.63" r="3.5" fill="#0b6e4f"/>
<circle cx="135.61" cy="124.74" r="3.5" fill="#0b6e4f"/>
<circle cx="137.24" cy="120.03" r="3.5" fill="#0b6e4f"/>
<circle cx="138.87" cy="115.50" r="3.5" fill="#0b6e4f"/>
<circle cx="140.50" cy="111.17" r="3.5" fill="#0b6e4f"/>
<circle cx="142.13" cy="107.04" r="3.5" fill="#0b6e4f"/>
<circle cx="143.76" cy="103.10" r="3.5" fill="#0b6e4f"/>
<circle cx="145.39" cy="99.38" r="3.5" fill="#0b6e4f"/>
<circle cx="147.02" cy="95.86" r="3.5" fill="#0b6e4f"/>
<circle cx="148.65" cy="92.55" r="3.5" fill="#0b6e4f"/>
<circle cx="150.28" cy="89.46" r="3.5" fill="#0b6e4f"/>
<circle cx="151.90" cy="86.59" r="3.5" fill="#0b6e4f"/>
<circle cx="153.53" cy="83.94" r="3.5" fill="#0b6e4f"/>
<circle cx="155.16" cy="81.51" r="3.5" fill="#0b6e4f"/>
<circle cx="156.79" cy="79.31" r="3.5" fill="#0b6e4f"/>
<circle cx="158.42" cy="77.34" r="3.5" fill="#0b6e4f"/>
<circle cx="160.05" cy="75.60" r="3.5" fill="#0b6e4f"/>
<circle cx="161.68" cy="74.09" r="3.5" fill="#0b6e4f"/>
<circle cx="163.31" cy="72.82" r="3.5" fill="#0b6e4f"/>
<circle cx="164.94" cy="71.78" r="3.5" fill="#0b6e4f"/>
<circle cx="166.57" cy="70.98" r="3.5" fill="#0b6e4f"/>
<circle cx="168.20" cy="70.42" r="3.5" fill="#0b6e4f"/>
<circle cx="169.82" cy="70.09" r="3.5" fill="#0b6e4f"/>
<circle cx="171.45" cy="70.00" r="3.5" fill="#0b6e4f"/>
<circle cx="173.08" cy="70.15" r="3.5" fill="#0b6e4f"/>
<circle cx="174.71" cy="70.54" r="3.5" fill="#0b6e4f"/>
<circle cx="176.34" cy="71.16" r="3.5" fill="#0b6e4f"/>
<circle cx="177.97" cy="72.02" r="3.5" fill="#0b6e4f"/>
<circle cx="179.60" cy="73.12" r="3.5" fill="#0b6e4f"/>
<circle cx="181.23" cy="74.45" r="3.5" fill="#0b6e4f"/>
<circle cx="182.86" cy="76.02" r="3.5" fill="#0b6e4f"/>
<circle cx="184.49" cy="77.81" r="3.5" fill="#0b6e4f"/>
<circle cx="186.12" cy="79.84" r="3.5" fill="#0b6e4f"/>
<circle cx="187.74" cy="82.10" r="3.5" fill="#0b6e4f"/>
<circle cx="189.37" cy="84.58" r="3.5" fill="#0b6e4f"/>
<circle cx="191.00" cy="87.29" r="3.5" fill="#0b6e4f"/>
<circle cx="192.63" cy="90.21" r="3.5" fill="#0b6e4f"/>
<circle cx="194.26" cy="93.36" r="3.5" fill="#0b6e4f"/>
<circle cx="195.89" cy="96.72" r="3.5" fill="#0b6e4f"/>
<circle cx="197.52" cy="100.29" r="3.5" fill="#0b6e4f"/>
<circle cx="199.15" cy="104.07" r="3.5" fill="#0b6e4f"/>
<circle cx="200.78" cy="108.05" r="3.5" fill="#0b6e4f"/>
<circle cx="202.41" cy="112.23" r="3.5" fill="#0b6e4f"/>
<circle cx="204.04" cy="116.61" r="3.5" fill="#0b6e4f"/>
<circle cx="205.66" cy="121.19" r="3.5" fill="#0b6e4f"/>
<circle cx="207.29" cy="125.95" r="3.5" fill="#0b6e4f"/>
<circle cx="208.92" cy="130.89" r="3.5" fill="#0b6e4f"/>
<circle cx="210.55" cy="136.01" r="3.5" fill="#0b6e4f"/>
<circle cx="212.18" cy="141.30" r="3.5" fill="#0b6e4f"/>
<circle cx="213.81" cy="146.76" r="3.5" fill="#0b6e4f"/>
<circle cx="215.44" cy="152.38" r="3.5" fill="#0b6e4f"/>
<circle cx="217.07" cy="158.16" r="3.5" fill="#0b6e4f"/>
<circle cx="218.70" cy="164.08" r="3.5" fill="#0b6e4f"/>
<circle cx="220.33" cy="170.16" r="3.5" fill="#0b6e4f"/>
<circle cx="221.95" cy="176.37" r="3.5" fill="#0b6e4f"/>
<circle cx="223.58" cy="182.71" r="3.5" fill="#0b6e4f"/>
<circle cx="225.21" cy="189.18" r="3.5" fill="#0b6e4f"/>
<circle cx="226.84" cy="195.77" r="3.5" fill="#0b6e4f"/>
<circle cx="228.47" cy="202.48" r="3.5" fill="#0b6e4f"/>
<circle cx="230.10" cy="209.28" r="3.5" fill="#0b6e4f"/>
<circle cx="231.73" cy="216.19" r="3.5" fill="#0b6e4f"/>
<circle cx="233.36" cy="223.20" r="3.5" fill="#0b6e4f"/>
<circle cx="234.99" cy="230.29" r="3.5" fill="#0b6e4f"/>
<circle cx="236.62" cy="237.45" r="3.5" fill="#0b6e4f"/>
<circle cx="238.25" cy="244.69" r="3.5" fill="#0b6e4f"/>
<circle cx="239.87" cy="252.00" r="3.5" fill="#0b6e4f"/>
<circle cx="241.50" cy="259.36" r="3.5" fill="#0b6e4f"/>
<circle cx="243.13" cy="266.77" r="3.5" fill="#0b6e4f"/>
<circle cx="244.76" cy="274.23" r="3.5" fill="#0b6e4f"/>
<circle cx="246.39" cy="281.72" r="3.5" fill="#0b6e4f"/>
<circle cx="248.02" cy="289.24" r="3.5" fill="#0b6e4f"/>
<circle cx="249.65" cy="296.78" r="3.5" fill="#0b6e4f"/>
<circle cx="251.28" cy="304.33" r="3.5" fill="#0b6e4f"/>
<circle cx="252.91" cy="311.89" r="3.5" fill="#0b6e4f"/>
<circle cx="254.54" cy="319.45" r="3.5" fill="#0b6e4f"/>
<circle cx="256.17" cy="326.99" r="3.5" fill="#0b6e4f"/>
<circle cx="257.79" cy="334.52" r="3.5" fill="#0b6e4f"/>
<circle cx="259.42" cy="342.03" r="3.5" fill="#0b6e4f"/>
<circle cx="261.05" cy="349.50" r="3.5" fill="#0b6e4f"/>
<circle cx="262.68" cy="356.94" r="3.5" fill="#0b6e4f"/>
<circle cx="264.31" cy="364.33" r="3.5" fill="#0b6e4f"/>
<circle cx="265.94" cy="371.66" r="3.5" fill="#0b6e4f"/>
<circle cx="267.57" cy="378.93" r="3.5" fill="#0b6e4f"/>
<circle cx="269.20" cy="386.14" r="3.5" fill="#0b6e4f"/>
<circle cx="270.83" cy="393.27" r="3.5" fill="#0b6e4f"/>
<circle cx="272.46" cy="400.31" r="3.5" fill="#0b6e4f"/>
<circle cx="274.09" cy="407.27" r="3.5" fill="#0b6e4f"/>
<circle cx="275.71" cy="414.13" r="3.5" fill="#0b6e4f"/>
<circle cx="277.34" cy="420.89" r="3.5" fill="#0b6e4f"/>
<circle cx="278.97" cy="427.54" r="3.5" fill="#0b6e4f"/>
<circle cx="280.60" cy="434.07" r="3.5" fill="#0b6e4f"/>
<circle cx="282.23" cy="440.48" r="3.5" fill="#0b6e4f"/>
<circle cx="283.86" cy="446.75" r="3.5" fill="#0b6e4f"/>
<circle cx="285.49" cy="452.90" r="3.5" fill="#0b6e4f"/>
<circle cx="287.12" cy="458.90" r="3.5" fill="#0b6e4f"/>
<circle cx="288.75" cy="464.75" r="3.5" fill="#0b6e4f"/>
<circle cx="290.38" cy="470.45" r="3.5" fill="#0b6e4f"/>
<circle cx="292.01" cy="475.99" r="3.5" fill="#0b6e4f"/>
<circle cx="293.63" cy="481.37" r="3.5" fill="#0b6e4f"/>
<circle cx="295.26" cy="486.58" r="3.5" fill="#0b6e4f"/>
<circle cx="296.89" cy="491.61" r="3.5" fill="#0b6e4f"/>
<circle cx="298.52" cy="496.46" r="3.5" fill="#0b6e4f"/>
<circle cx="300.15" cy="501.12" r="3.5" fill="#0b6e4f"/>
<circle cx="301.78" cy="505.60" r="3.5" fill="#0b6e4f"/>
<circle cx="303.41" cy="509.88" r="3.5" fill="#0b6e4f"/>
<circle cx="305.04" cy="513.97" r="3.5" fill="#0b6e4f"/>
<circle cx="306.67" cy="517.85" r="3.5" fill="#0b6e4f"/>
<circle cx="308.30" cy="521.52" r="3.5" fill="#0b6e4f"/>
<circle cx="309.92" cy="524.99" r="3.5" fill="#0b6e4f"/>
<circle cx="311.55" cy="528.24" r="3.5" fill="#0b6e4f"/>
<circle cx="313.18" cy="531.28" r="3.5" fill="#0b6e4f"/>
<circle cx="314.81" cy="534.09" r="3.5" fill="#0b6e4f"/>
<circle cx="316.44" cy="536.69" r="3.5" fill="#0b6e4f"/>
<circle cx="318.07" cy="539.06" r="3.5" fill="#0b6e4f"/>
<circle cx="319.70" cy="541.20" r="3.5" fill="#0b6e4f"/>
<circle cx="321.33" cy="543.11" r="3.5" fill="#0b6e4f"/>
<circle cx="322.96" cy="544.80" r="3.5" fill="#0b6e4f"/>
<circle cx="324.59" cy="546.25" r="3.5" fill="#0b6e4f"/>
<circle cx="326.22" cy="547.46" r="3.5" fill="#0b6e4f"/>
<circle cx="327.84" cy="548.44" r="3.5" fill="#0b6e4f"/>
<circle cx="329.47" cy="549.18" r="3.5" fill="#0b6e4f"/>
<circle cx="331.10" cy="549.69" r="3.5" fill="#0b6e4f"/>
<circle cx="332.73" cy="549.96" r="3.5" fill="#0b6e4f"/>
<circle cx="334.36" cy="549.99" r="3.5" fill="#0b6e4f"/>
<circle cx="335.99" cy="549.78" r="3.5" fill="#0b6e4f"/>
<circle cx="337.62" cy="549.33" r="3.5" fill="#0b6e4f"/>
<circle cx="339.25" cy="548.65" r="3.5" fill="#0b6e4f"/>
<circle cx="340.88" cy="547.73" r="3.5" fill="#0b6e4f"/>
<circle cx="342.51" cy="546.57" r="3.5" fill="#0b6e4f"/>
<circle cx="344.14" cy="545.18" r="3.5" fill="#0b6e4f"/>
<circle cx="345.76" cy="543.56" r="3.5" fill="#0b6e4f"/>
<circle cx="347.39" cy="541.70" r="3.5" fill="#0b6e4f"/>
<circle cx="349.02" cy="539.62" r="3.5" fill="#0b6e4f"/>
<circle cx="350.65" cy="537.30" r="3.5" fill="#0b6e4f"/>
<circle cx="352.28" cy="534.76" r="3.5" fill="#0b6e4f"/>
<circle cx="353.91" cy="532.00" r="3.5" fill="#0b6e4f"/>
<circle cx="355.54" cy="529.02" r="3.5" fill="#0b6e4f"/>
<circle cx="357.17" cy="525.82" r="3.5" fill="#0b6e4f"/>
<circle cx="358.80" cy="522.41" r="3.5" fill="#0b6e4f"/>
<circle cx="360.43" cy="518.79" r="3.5" fill="#0b6e4f"/>
<circle cx="362.06" cy="514.96" r="3.5" fill="#0b6e4f"/>
<circle cx="363.68" cy="510.92" r="3.5" fill="#0b6e4f"/>
<circle cx="365.31" cy="506.69" r="3.5" fill="#0b6e4f"/>
<circle cx="366.94" cy="502.26" r="3.5" fill="#0b6e4f"/>
<circle cx="368.57" cy="497.64" r="3.5" fill="#0b6e4f"/>
<circle cx="370.20" cy="492.84" r="3.5" fill="#0b6e4f"/>
<circle cx="371.83" cy="487.85" r="3.5" fill="#0b6e4f"/>
<circle cx="373.46" cy="482.69" r="3.5" fill="#0b6e4f"/>
<circle cx="375.09" cy="477.35" r="3.5" fill="#0b6e4f"/>
<circle cx="376.72" cy="471.85" r="3.5" fill="#0b6e4f"/>
<circle cx="378.35" cy="466.19" r="3.5" fill="#0b6e4f"/>
<circle cx="379.97" cy="460.38" r="3.5" fill="#0b6e4f"/>
<circle cx="381.60" cy="454.41" r="3.5" fill="#0b6e4f"/>
<circle cx="383.23" cy="448.30" r="3.5" fill="#0b6e4f"/>
<circle cx="384.86" cy="442.06" r="3.5" fill="#0b6e4f"/>
<circle cx="386.49" cy="435.68" r="3.5" fill="#0b6e4f"/>
<circle cx="388.12" cy="429.18" r="3.5" fill="#0b6e4f"/>
<circle cx="389.75" cy="422.56" r="3.5" fill="#0b6e4f"/>
<circle cx="391.38" cy="415.83" r="3.5" fill="#0b6e4f"/>
<circle cx="393.01" cy="409.00" r="3.5" fill="#0b6e4f"/>
<circle cx="394.64" cy="402.06" r="3.5" fill="#0b6e4f"/>
<circle cx="396.27" cy="395.04" r="3.5" fill="#0b6e4f"/>
<circle cx="397.89" cy="387.93" r="3.5" fill="#0b6e4f"/>
<circle cx="399.52" cy="380.74" r="3.5" fill="#0b6e4f"/>
<circle cx="401.15" cy="373.48" r="3.5" fill="#0b6e4f"/>
<circle cx="402.78" cy="366.17" r="3.5" fill="#0b6e4f"/>
<circle cx="404.41" cy="358.79" r="3.5" fill="#0b6e4f"/>
<circle cx="406.04" cy="351.37" r="3.5" fill="#0b6e4f"/>
<circle cx="407.67" cy="343.90" r="3.5" fill="#0b6e4f"/>
<circle cx="409.30" cy="336.40" r="3.5" fill="#0b6e4f"/>
<circle cx="410.93" cy="328.88" r="3.5" fill="#0b6e4f"/>
<circle cx="412.56" cy="321.33" r="3.5" fill="#0b6e4f"/>
<circle cx="414.19" cy="313.78" r="3.5" fill="#0b6e4f"/>
<circle cx="415.81" cy="306.22" r="3.5" fill="#0b6e4f"/>
<circle cx="417.44" cy="298.67" r="3.5" fill="#0b6e4f"/>
<circle cx="419.07" cy="291.12" r="3.5" fill="#0b6e4f"/>
<circle cx="420.70" cy="283.60" r="3.5" fill="#0b6e4f"/>
<circle cx="422.33" cy="276.10" r="3.5" fill="#0b6e4f"/>
<circle cx="423.96" cy="268.63" r="3.5" fill="#0b6e4f"/>
<circle cx="425.59" cy="261.21" r="3.5" fill="#0b6e4f"/>
<circle cx="427.22" cy="253.83" r="3.5" fill="#0b6e4f"/>
<circle cx="428.85" cy="246.52" r="3.5" fill="#0b6e4f"/>
<circle cx="430.48" cy="239.26" r="3.5" fill="#0b6e4f"/>
<circle cx="432.11" cy="232.07" r="3.5" fill="#0b6e4f"/>
<circle cx="433.73" cy="224.96" r="3.5" fill="#0b6e4f"/>
<circle cx="435.36" cy="217.94" r="3.5" fill="#0b6e4f"/>
<circle cx="436.99" cy="211.00" r="3.5" fill="#0b6e4f"/>
<circle cx="438.62" cy="204.17" r="3.5" fill="#0b6e4f"/>
<circle cx="440.25" cy="197.44" r="3.5" fill="#0b6e4f"/>
<circle cx="441.88" cy="190.82" r="3.5" fill="#0b6e4f"/>
<circle cx="443.51" cy="184.32" r="3.5" fill="#0b6e4f"/>
<circle cx="445.14" cy="177.94" r="3.5" fill="#0b6e4f"/>
<circle cx="446.77" cy="171.70" r="3.5" fill="#0b6e4f"/>
<circle cx="448.40" cy="165.59" r="3.5" fill="#0b6e4f"/>
<circle cx="450.03" cy="159.62" r="3.5" fill="#0b6e4f"/>
<circle cx="451.65" cy="153.81" r="3.5" fill="#0b6e4f"/>
<circle cx="453.28" cy="148.15" r="3.5" fill="#0b6e4f"/>
<circle cx="454.91" cy="142.65" r="3.5" fill="#0b6e4f"/>
<circle cx="456.54" cy="137.31" r="3.5" fill="#0b6e4f"/>
<circle cx="458.17" cy="132.15" r="3.5" fill="#0b6e4f"/>
<circle cx="459.80" cy="127.16" r="3.5" fill="#0b6e4f"/>
<circle cx="461.43" cy="122.36" r="3.5" fill="#0b6e4f"/>
<circle cx="463.06" cy="117.74" r="3.5" fill="#0b6e4f"/>
<circle cx="464.69" cy="113.31" r="3.5" fill="#0b6e4f"/>
<circle cx="466.32" cy="109.08" r="3.5" fill="#0b6e4f"/>
<circle cx="467.94" cy="105.04" r="3.5" fill="#0b6e4f"/>
<circle cx="469.57" cy="101.21" r="3.5" fill="#0b6e4f"/>
<circle cx="471.20" cy="97.59" r="3.5" fill="#0b6e4f"/>
<circle cx="472.83" cy="94.18" r="3.5" fill="#0b6e4f"/>
<circle cx="474.46" cy="90.98" r="3.5" fill="#0b6e4f"/>
<circle cx="476.09" cy="88.00" r="3.5" fill="#0b6e4f"/>
<circle cx="477.72" cy="85.24" r="3.5" fill="#0b6e4f"/>
<circle cx="479.35" cy="82.70" r="3.5" fill="#0b6e4f"/>
<circle cx="480.98" cy="80.38" r="3.5" fill="#0b6e4f"/>
<circle cx="482.61" cy="78.30" r="3.5" fill="#0b6e4f"/>
<circle cx="484.24" cy="76.44" r="3.5" fill="#0b6e4f"/>
<circle cx="485.86" cy="74.82" r="3.5" fill="#0b6e4f"/>
<circle cx="487.49" cy="73.43" r="3.5" fill="#0b6e4f"/>
<circle cx="489.12" cy="72.27" r="3.5" fill="#0b6e4f"/>
<circle cx="490.75" cy="71.35" r="3.5" fill="#0b6e4f"/>
<circle cx="492.38" cy="70.67" r="3.5" fill="#0b6e4f"/>
<circle cx="494.01" cy="70.22" r="3.5" fill="#0b6e4f"/>
<circle cx="495.64" cy="70.01" r="3.5" fill="#0b6e4f"/>
<circle cx="497.27" cy="70.04" r="3.5" fill="#0b6e4f"/>
<circle cx="498.90" cy="70.31" r="3.5" fill="#0b6e4f"/>
<circle cx="500.53" cy="70.82" r="3.5" fill="#0b6e4f"/>
<circle cx="502.16" cy="71.56" r="3.5" fill="#0b6e4f"/>
<circle cx="503.78" cy="72.54" r="3.5" fill="#0b6e4f"/>
<circle cx="505.41" cy="73.75" r="3.5" fill="#0b6e4f"/>
<circle cx="507.04" cy="75.20" r="3.5" fill="#0b6e4f"/>
<circle cx="508.67" cy="76.89" r="3.5" fill="#0b6e4f"/>
<circle cx="510.30" cy="78.80" r="3.5" fill="#0b6e4f"/>
<circle cx="511.93" cy="80.94" r="3.5" fill="#0b6e4f"/>
<circle cx="513.56" cy="83.31" r="3.5" fill="#0b6e4f"/>
<circle cx="515.19" cy="85.91" r="3.5" fill="#0b6e4f"/>
<circle cx="516.82" cy="88.72" r="3.5" fill="#0b6e4f"/>
<circle cx="518.45" cy="91.76" r="3.5" fill="#0b6e4f"/>
<circle cx="520.08" cy="95.01" r="3.5" fill="#0b6e4f"/>
<circle cx="521.70" cy="98.48" r="3.5" fill="#0b6e4f"/>
<circle cx="523.33" cy="102.15" r="3.5" fill="#0b6e4f"/>
<circle cx="524.96" cy="106.03" r="3.5" fill="#0b6e4f"/>
<circle cx="526.59" cy="110.12" r="3.5" fill="#0b6e4f"/>
<circle cx="528.22" cy="114.40" r="3.5" fill="#0b6e4f"/>
<circle cx="529.85" cy="118.88" r="3.5" fill="#0b6e4f"/>
<circle cx="531.48" cy="123.54" r="3.5" fill="#0b6e4f"/>
<circle cx="533.11" cy="128.39" r="3.5" fill="#0b6e4f"/>
<circle cx="534.74" cy="133.42" r="3.5" fill="#0b6e4f"/>
<circle cx="536.37" cy="138.63" r="3.5" fill="#0b6e4f"/>
<circle cx="537.99" cy="144.01" r="3.5" fill="#0b6e4f"/>
<circle cx="539.62" cy="149.55" r="3.5" fill="#0b6e4f"/>
<circle cx="541.25" cy="155.25" r="3.5" fill="#0b6e4f"/>
<circle cx="542.88" cy="161.10" r="3.5" fill="#0b6e4f"/>
<circle cx="544.51" cy="167.10" r="3.5" fill="#0b6e4f"/>
<circle cx="546.14" cy="173.25" r="3.5" fill="#0b6e4f"/>
<circle cx="547.77" cy="179.52" r="3.5" fill="#0b6e4f"/>
<circle cx="549.40" cy="185.93" r="3.5" fill="#0b6e4f"/>
<circle cx="551.03" cy="192.46" r="3.5" fill="#0b6e4f"/>
<circle cx="552.66" cy="199.11" r="3.5" fill="#0b6e4f"/>
<circle cx="554.29" cy="205.87" r="3.5" fill="#0b6e4f"/>
<circle cx="555.91" cy="212.73" r="3.5" fill="#0b6e4f"/>
<circle cx="557.54" cy="219.69" r="3.5" fill="#0b6e4f"/>
<circle cx="559.17" cy="226.73" r="3.5" fill="#0b6e4f"/>
<circle cx="560.80" cy="233.86" r="3.5" fill="#0b6e4f"/>
<circle cx="562.43" cy="241.07" r="3.5" fill="#0b6e4f"/>
<circle cx="564.06" cy="248.34" r="3.5" fill="#0b6e4f"/>
<circle cx="565.69" cy="255.67" r="3.5" fill="#0b6e4f"/>
<circle cx="567.32" cy="263.06" r="3.5" fill="#0b6e4f"/>
<circle cx="568.95" cy="270.50" r="3.5" fill="#0b6e4f"/>
<circle cx="570.58" cy="277.97" r="3.5" fill="#0b6e4f"/>
<circle cx="572.21" cy="285.48" r="3.5" fill="#0b6e4f"/>
<circle cx="573.83" cy="293.01" r="3.5" fill="#0b6e4f"/>
<circle cx="575.46" cy="300.55" r="3.5" fill="#0b6e4f"/>
<circle cx="577.09" cy="308.11" r="3.5" fill="#0b6e4f"/>
<circle cx="578.72" cy="315.67" r="3.5" fill="#0b6e4f"/>
<circle cx="580.35" cy="323.22" r="3.5" fill="#0b6e4f"/>
<circle cx="581.98" cy="330.76" r="3.5" fill="#0b6e4f"/>
<circle cx="583.61" cy="338.28" r="3.5" fill="#0b6e4f"/>
<circle cx="585.24" cy="345.77" r="3.5" fill="#0b6e4f"/>
<circle cx="586.87" cy="353.23" r="3.5" fill="#0b6e4f"/>
<circle cx="588.50" cy="360.64" r="3.5" fill="#0b6e4f"/>
<circle cx="590.13" cy="368.00" r="3.5" fill="#0b6e4f"/>
<circle cx="591.75" cy="375.31" r="3.5" fill="#0b6e4f"/>
<circle cx="593.38" cy="382.55" r="3.5" fill="#0b6e4f"/>
<circle cx="595.01" cy="389.71" r="3.5" fill="#0b6e4f"/>
<circle cx="596.64" cy="396.80" r="3.5" fill="#0b6e4f"/>
<circle cx="598.27" cy="403.81" r="3.5" fill="#0b6e4f"/>
<circle cx="599.90" cy="410.72" r="3.5" fill="#0b6e4f"/>
<circle cx="601.53" cy="417.52" r="3.5" fill="#0b6e4f"/>
<circle cx="603.16" cy="424.23" r="3.5" fill="#0b6e4f"/>
<circle cx="604.79" cy="430.82" r="3.5" fill="#0b6e4f"/>
<circle cx="606.42" cy="437.29" r="3.5" fill="#0b6e4f"/>
<circle cx="608.05" cy="443.63" r="3.5" fill="#0b6e4f"/>
<circle cx="609.67" cy="449.84" r="3.5" fill="#0b6e4f"/>
<circle cx="611.30" cy="455.92" r="3.5" fill="#0b6e4f"/>
<circle cx="612.93" cy="461.84" r="3.5" fill="#0b6e4f"/>
<circle cx="614.56" cy="467.62" r="3.5" fill="#0b6e4f"/>
<circle cx="616.19" cy="473.24" r="3.5" fill="#0b6e4f"/>
<circle cx="617.82" cy="478.70" r="3.5" fill="#0b6e4f"/>
<circle cx="619.45" cy="483.99" r="3.5" fill="#0b6e4f"/>
<circle cx="621.08" cy="489.11" r="3.5" fill="#0b6e4f"/>
<circle cx="622.71" cy="494.05" r="3.5" fill="#0b6e4f"/>
<circle cx="624.34" cy="498.81" r="3.5" fill="#0b6e4f"/>
<circle cx="625.96" cy="503.39" r="3.5" fill="#0b6e4f"/>
<circle cx="627.59" cy="507.77" r="3.5" fill="#0b6e4f"/>
<circle cx="629.22" cy="511.95" r="3.5" fill="#0b6e4f"/>
<circle cx="630.85" cy="515.93" r="3.5" fill="#0b6e4f"/>
<circle cx="632.48" cy="519.71" r="3.5" fill="#0b6e4f"/>
<circle cx="634.11" cy="523.28" r="3.5" fill="#0b6e4f"/>
<circle cx="635.74" cy="526.64" r="3.5" fill="#0b6e4f"/>
<circle cx="637.37" cy="529.79" r="3.5" fill="#0b6e4f"/>
<circle cx="639.00" cy="532.71" r="3.5" fill="#0b6e4f"/>
<circle cx="640.63" cy="535.42" r="3.5" fill="#0b6e4f"/>
<circle cx="642.26" cy="537.90" r="3.5" fill="#0b6e4f"/>
<circle cx="643.88" cy="540.16" r="3.5" fill="#0b6e4f"/>
<circle cx="645.51" cy="542.19" r="3.5" fill="#0b6e4f"/>
<circle cx="647.14" cy="543.98" r="3.5" fill="#0b6e4f"/>
<circle cx="648.77" cy="545.55" r="3.5" fill="#0b6e4f"/>
<circle cx="650.40" cy="546.88" r="3.5" fill="#0b6e4f"/>
<circle cx="652.03" cy="547.98" r="3.5" fill="#0b6e4f"/>
<circle cx="653.66" cy="548.84" r="3.5" fill="#0b6e4f"/>
<circle cx="655.29" cy="549.46" r="3.5" fill="#0b6e4f"/>
<circle cx="656.92" cy="549.85" r="3.5" fill="#0b6e4f"/>
<circle cx="658.55" cy="550.00" r="3.5" fill="#0b6e4f"/>
<circle cx="660.18" cy="549.91" r="3.5" fill="#0b6e4f"/>
<circle cx="661.80" cy="549.58" r="3.5" fill="#0b6e4f"/>
<circle cx="663.43" cy="549.02" r="3.5" fill="#0b6e4f"/>
<circle cx="665.06" cy="548.22" r="3.5" fill="#0b6e4f"/>
<circle cx="666.69" cy="547.18" r="3.5" fill="#0b6e4f"/>
<circle cx="668.32" cy="545.91" r="3.5" fill="#0b6e4f"/>
<circle cx="669.95" cy="544.40" r="3.5" fill="#0b6e4f"/>
<circle cx="671.58" cy="542.66" r="3.5" fill="#0b6e4f"/>
<circle cx="673.21" cy="540.69" r="3.5" fill="#0b6e4f"/>
<circle cx="674.84" cy="538.49" r="3.5" fill="#0b6e4f"/>
<circle cx="676.47" cy="536.06" r="3.5" fill="#0b6e4f"/>
<circle cx="678.10" cy="533.41" r="3.5" fill="#0b6e4f"/>
<circle cx="679.72" cy="530.54" r="3.5" fill="#0b6e4f"/>
<circle cx="681.35" cy="527.45" r="3.5" fill="#0b6e4f"/>
<circle cx="682.98" cy="524.14" r="3.5" fill="#0b6e4f"/>
<circle cx="684.61" cy="520.62" r="3.5" fill="#0b6e4f"/>
<circle cx="686.24" cy="516.90" r="3.5" fill="#0b6e4f"/>
<circle cx="687.87" cy="512.96" r="3.5" fill="#0b6e4f"/>
<circle cx="689.50" cy="508.83" r="3.5" fill="#0b6e4f"/>
<circle cx="691.13" cy="504.50" r="3.5" fill="#0b6e4f"/>
<circle cx="692.76" cy="499.97" r="3.5" fill="#0b6e4f"/>
<circle cx="694.39" cy="495.26" r="3.5" fill="#0b6e4f"/>
<circle cx="696.02" cy="490.37" r="3.5" fill="#0b6e4f"/>
<circle cx="697.64" cy="485.29" r="3.5" fill="#0b6e4f"/>
<circle cx="699.27" cy="480.04" r="3.5" fill="#0b6e4f"/>
<circle cx="700.90" cy="474.62" r="3.5" fill="#0b6e4f"/>
<circle cx="702.53" cy="469.04" r="3.5" fill="#0b6e4f"/>
<circle cx="704.16" cy="463.30" r="3.5" fill="#0b6e4f"/>
<circle cx="705.79" cy="457.41" r="3.5" fill="#0b6e4f"/>
<circle cx="707.42" cy="451.38" r="3.5" fill="#0b6e4f"/>
<circle cx="709.05" cy="445.20" r="3.5" fill="#0b6e4f"/>
<circle cx="710.68" cy="438.89" r="3.5" fill="#0b6e4f"/>
<circle cx="712.31" cy="432.45" r="3.5" fill="#0b6e4f"/>
<circle cx="713.93" cy="425.89" r="3.5" fill="#0b6e4f"/>
<circle cx="715.56" cy="419.21" r="3.5" fill="#0b6e4f"/>
<circle cx="717.19" cy="412.43" r="3.5" fill="#0b6e4f"/>
<circle cx="718.82" cy="405.54" r="3.5" fill="#0b6e4f"/>
<circle cx="720.45" cy="398.56" r="3.5" fill="#0b6e4f"/>
<circle cx="722.08" cy="391.49" r="3.5" fill="#0b6e4f"/>
<circle cx="723.71" cy="384.34" r="3.5" fill="#0b6e4f"/>
<circle cx="725.34" cy="377.12" r="3.5" fill="#0b6e4f"/>
<circle cx="726.97" cy="369.83" r="3.5" fill="#0b6e4f"/>
<circle cx="728.60" cy="362.48" r="3.5" fill="#0b6e4f"/>
<circle cx="730.23" cy="355.08" r="3.5" fill="#0b6e4f"/>
<circle cx="731.85" cy="347.64" r="3.5" fill="#0b6e4f"/>
<circle cx="733.48" cy="340.16" r="3.5" fill="#0b6e4f"/>
<circle cx="735.11" cy="332.64" r="3.5" fill="#0b6e4f"/>
<circle cx="736.74" cy="325.11" r="3.5" fill="#0b6e4f"/>
<circle cx="738.37" cy="317.56" r="3.5" fill="#0b6e4f"/>
<circle cx="740.00" cy="310.00" r="3.5" fill="#0b6e4f"/>
<line x1="770" y1="100" x2="798" y2="100" stroke="#0b6e4f" stroke-width="4"/>
<text x="808" y="105" font-size="15" font-family="Arial">sin_series(x)</text>
<polyline fill="none" stroke="#c1121f" stroke-width="3" points="90.00,310.00 91.63,302.44 93.26,294.89 94.89,287.36 96.52,279.84 98.15,272.36 99.77,264.92 101.40,257.52 103.03,250.17 104.66,242.88 106.29,235.66 107.92,228.51 109.55,221.44 111.18,214.46 112.81,207.57 114.44,200.79 116.07,194.11 117.69,187.55 119.32,181.11 120.95,174.80 122.58,168.62 124.21,162.59 125.84,156.70 127.47,150.96 129.10,145.38 130.73,139.96 132.36,134.71 133.98,129.63 135.61,124.74 137.24,120.03 138.87,115.50 140.50,111.17 142.13,107.04 143.76,103.10 145.39,99.38 147.02,95.86 148.65,92.55 150.28,89.46 151.90,86.59 153.53,83.94 155.16,81.51 156.79,79.31 158.42,77.34 160.05,75.60 161.68,74.09 163.31,72.82 164.94,71.78 166.57,70.98 168.20,70.42 169.82,70.09 171.45,70.00 173.08,70.15 174.71,70.54 176.34,71.16 177.97,72.02 179.60,73.12 181.23,74.45 182.86,76.02 184.49,77.81 186.12,79.84 187.74,82.10 189.37,84.58 191.00,87.29 192.63,90.21 194.26,93.36 195.89,96.72 197.52,100.29 199.15,104.07 200.78,108.05 202.41,112.23 204.04,116.61 205.66,121.19 207.29,125.95 208.92,130.89 210.55,136.01 212.18,141.30 213.81,146.76 215.44,152.38 217.07,158.16 218.70,164.08 220.33,170.16 221.95,176.37 223.58,182.71 225.21,189.18 226.84,195.77 228.47,202.48 230.10,209.28 231.73,216.19 233.36,223.20 234.99,230.29 236.62,237.45 238.25,244.69 239.87,252.00 241.50,259.36 243.13,266.77 244.76,274.23 246.39,281.72 248.02,289.24 249.65,296.78 251.28,304.33 252.91,311.89 254.54,319.45 256.17,326.99 257.79,334.52 259.42,342.03 261.05,349.50 262.68,356.94 264.31,364.33 265.94,371.66 267.57,378.93 269.20,386.14 270.83,393.27 272.46,400.31 274.09,407.27 275.71,414.13 277.34,420.89 278.97,427.54 280.60,434.07 282.23,440.48 283.86,446.75 285.49,452.90 287.12,458.90 288.75,464.75 290.38,470.45 292.01,475.99 293.63,481.37 295.26,486.58 296.89,491.61 298.52,496.46 300.15,501.12 301.78,505.60 303.41,509.88 305.04,513.97 306.67,517.85 308.30,521.52 309.92,524.99 311.55,528.24 313.18,531.28 314.81,534.09 316.44,536.69 318.07,539.06 319.70,541.20 321.33,543.11 322.96,544.80 324.59,546.25 326.22,547.46 327.84,548.44 329.47,549.18 331.10,549.69 332.73,549.96 334.36,549.99 335.99,549.78 337.62,549.33 339.25,548.65 340.88,547.73 342.51,546.57 344.14,545.18 345.76,543.56 347.39,541.70 349.02,539.62 350.65,537.30 352.28,534.76 353.91,532.00 355.54,529.02 357.17,525.82 358.80,522.41 360.43,518.79 362.06,514.96 363.68,510.92 365.31,506.69 366.94,502.26 368.57,497.64 370.20,492.84 371.83,487.85 373.46,482.69 375.09,477.35 376.72,471.85 378.35,466.19 379.97,460.38 381.60,454.41 383.23,448.30 384.86,442.06 386.49,435.68 388.12,429.18 389.75,422.56 391.38,415.83 393.01,409.00 394.64,402.06 396.27,395.04 397.89,387.93 399.52,380.74 401.15,373.48 402.78,366.17 404.41,358.79 406.04,351.37 407.67,343.90 409.30,336.40 410.93,328.88 412.56,321.33 414.19,313.78 415.81,306.22 417.44,298.67 419.07,291.12 420.70,283.60 422.33,276.10 423.96,268.63 425.59,261.21 427.22,253.83 428.85,246.52 430.48,239.26 432.11,232.07 433.73,224.96 435.36,217.94 436.99,211.00 438.62,204.17 440.25,197.44 441.88,190.82 443.51,184.32 445.14,177.94 446.77,171.70 448.40,165.59 450.03,159.62 451.65,153.81 453.28,148.15 454.91,142.65 456.54,137.31 458.17,132.15 459.80,127.16 461.43,122.36 463.06,117.74 464.69,113.31 466.32,109.08 467.94,105.04 469.57,101.21 471.20,97.59 472.83,94.18 474.46,90.98 476.09,88.00 477.72,85.24 479.35,82.70 480.98,80.38 482.61,78.30 484.24,76.44 485.86,74.82 487.49,73.43 489.12,72.27 490.75,71.35 492.38,70.67 494.01,70.22 495.64,70.01 497.27,70.04 498.90,70.31 500.53,70.82 502.16,71.56 503.78,72.54 505.41,73.75 507.04,75.20 508.67,76.89 510.30,78.80 511.93,80.94 513.56,83.31 515.19,85.91 516.82,88.72 518.45,91.76 520.08,95.01 521.70,98.48 523.33,102.15 524.96,106.03 526.59,110.12 528.22,114.40 529.85,118.88 531.48,123.54 533.11,128.39 534.74,133.42 536.37,138.63 537.99,144.01 539.62,149.55 541.25,155.25 542.88,161.10 544.51,167.10 546.14,173.25 547.77,179.52 549.40,185.93 551.03,192.46 552.66,199.11 554.29,205.87 555.91,212.73 557.54,219.69 559.17,226.73 560.80,233.86 562.43,241.07 564.06,248.34 565.69,255.67 567.32,263.06 568.95,270.50 570.58,277.97 572.21,285.48 573.83,293.01 575.46,300.55 577.09,308.11 578.72,315.67 580.35,323.22 581.98,330.76 583.61,338.28 585.24,345.77 586.87,353.23 588.50,360.64 590.13,368.00 591.75,375.31 593.38,382.55 595.01,389.71 596.64,396.80 598.27,403.81 599.90,410.72 601.53,417.52 603.16,424.23 604.79,430.82 606.42,437.29 608.05,443.63 609.67,449.84 611.30,455.92 612.93,461.84 614.56,467.62 616.19,473.24 617.82,478.70 619.45,483.99 621.08,489.11 622.71,494.05 624.34,498.81 625.96,503.39 627.59,507.77 629.22,511.95 630.85,515.93 632.48,519.71 634.11,523.28 635.74,526.64 637.37,529.79 639.00,532.71 640.63,535.42 642.26,537.90 643.88,540.16 645.51,542.19 647.14,543.98 648.77,545.55 650.40,546.88 652.03,547.98 653.66,548.84 655.29,549.46 656.92,549.85 658.55,550.00 660.18,549.91 661.80,549.58 663.43,549.02 665.06,548.22 666.69,547.18 668.32,545.91 669.95,544.40 671.58,542.66 673.21,540.69 674.84,538.49 676.47,536.06 678.10,533.41 679.72,530.54 681.35,527.45 682.98,524.14 684.61,520.62 686.24,516.90 687.87,512.96 689.50,508.83 691.13,504.50 692.76,499.97 694.39,495.26 696.02,490.37 697.64,485.29 699.27,480.04 700.90,474.62 702.53,469.04 704.16,463.30 705.79,457.41 707.42,451.38 709.05,445.20 710.68,438.89 712.31,432.45 713.93,425.89 715.56,419.21 717.19,412.43 718.82,405.54 720.45,398.56 722.08,391.49 723.71,384.34 725.34,377.12 726.97,369.83 728.60,362.48 730.23,355.08 731.85,347.64 733.48,340.16 735.11,332.64 736.74,325.11 738.37,317.56 740.00,310.00"/>
<circle cx="90.00" cy="310.00" r="3.5" fill="#c1121f"/>
<circle cx="91.63" cy="302.44" r="3.5" fill="#c1121f"/>
<circle cx="93.26" cy="294.89" r="3.5" fill="#c1121f"/>
<circle cx="94.89" cy="287.36" r="3.5" fill="#c1121f"/>
<circle cx="96.52" cy="279.84" r="3.5" fill="#c1121f"/>
<circle cx="98.15" cy="272.36" r="3.5" fill="#c1121f"/>
<circle cx="99.77" cy="264.92" r="3.5" fill="#c1121f"/>
<circle cx="101.40" cy="257.52" r="3.5" fill="#c1121f"/>
<circle cx="103.03" cy="250.17" r="3.5" fill="#c1121f"/>
<circle cx="104.66" cy="242.88" r="3.5" fill="#c1121f"/>
<circle cx="106.29" cy="235.66" r="3.5" fill="#c1121f"/>
<circle cx="107.92" cy="228.51" r="3.5" fill="#c1121f"/>
<circle cx="109.55" cy="221.44" r="3.5" fill="#c1121f"/>
<circle cx="111.18" cy="214.46" r="3.5" fill="#c1121f"/>
<circle cx="112.81" cy="207.57" r="3.5" fill="#c1121f"/>
<circle cx="114.44" cy="200.79" r="3.5" fill="#c1121f"/>
<circle cx="116.07" cy="194.11" r="3.5" fill="#c1121f"/>
<circle cx="117.69" cy="187.55" r="3.5" fill="#c1121f"/>
<circle cx="119.32" cy="181.11" r="3.5" fill="#c1121f"/>
<circle cx="120.95" cy="174.80" r="3.5" fill="#c1121f"/>
<circle cx="122.58" cy="168.62" r="3.5" fill="#c1121f"/>
<circle cx="124.21" cy="162.59" r="3.5" fill="#c1121f"/>
<circle cx="125.84" cy="156.70" r="3.5" fill="#c1121f"/>
<circle cx="127.47" cy="150.96" r="3.5" fill="#c1121f"/>
<circle cx="129.10" cy="145.38" r="3.5" fill="#c1121f"/>
<circle cx="130.73" cy="139.96" r="3.5" fill="#c1121f"/>
<circle cx="132.36" cy="134.71" r="3.5" fill="#c1121f"/>
<circle cx="133.98" cy="129.63" r="3.5" fill="#c1121f"/>
<circle cx="135.61" cy="124.74" r="3.5" fill="#c1121f"/>
<circle cx="137.24" cy="120.03" r="3.5" fill="#c1121f"/>
<circle cx="138.87" cy="115.50" r="3.5" fill="#c1121f"/>
<circle cx="140.50" cy="111.17" r="3.5" fill="#c1121f"/>
<circle cx="142.13" cy="107.04" r="3.5" fill="#c1121f"/>
<circle cx="143.76" cy="103.10" r="3.5" fill="#c1121f"/>
<circle cx="145.39" cy="99.38" r="3.5" fill="#c1121f"/>
<circle cx="147.02" cy="95.86" r="3.5" fill="#c1121f"/>
<circle cx="148.65" cy="92.55" r="3.5" fill="#c1121f"/>
<circle cx="150.28" cy="89.46" r="3.5" fill="#c1121f"/>
<circle cx="151.90" cy="86.59" r="3.5" fill="#c1121f"/>
<circle cx="153.53" cy="83.94" r="3.5" fill="#c1121f"/>
<circle cx="155.16" cy="81.51" r="3.5" fill="#c1121f"/>
<circle cx="156.79" cy="79.31" r="3.5" fill="#c1121f"/>
<circle cx="158.42" cy="77.34" r="3.5" fill="#c1121f"/>
<circle cx="160.05" cy="75.60" r="3.5" fill="#c1121f"/>
<circle cx="161.68" cy="74.09" r="3.5" fill="#c1121f"/>
<circle cx="163.31" cy="72.82" r="3.5" fill="#c1121f"/>
<circle cx="164.94" cy="71.78" r="3.5" fill="#c1121f"/>
<circle cx="166.57" cy="70.98" r="3.5" fill="#c1121f"/>
<circle cx="168.20" cy="70.42" r="3.5" fill="#c1121f"/>
<circle cx="169.82" cy="70.09" r="3.5" fill="#c1121f"/>
<circle cx="171.45" cy="70.00" r="3.5" fill="#c1121f"/>
<circle cx="173.08" cy="70.15" r="3.5" fill="#c1121f"/>
<circle cx="174.71" cy="70.54" r="3.5" fill="#c1121f"/>
<circle cx="176.34" cy="71.16" r="3.5" fill="#c1121f"/>
<circle cx="177.97" cy="72.02" r="3.5" fill="#c1121f"/>
<circle cx="179.60" cy="73.12" r="3.5" fill="#c1121f"/>
<circle cx="181.23" cy="74.45" r="3.5" fill="#c1121f"/>
<circle cx="182.86" cy="76.02" r="3.5" fill="#c1121f"/>
<circle cx="184.49" cy="77.81" r="3.5" fill="#c1121f"/>
<circle cx="186.12" cy="79.84" r="3.5" fill="#c1121f"/>
<circle cx="187.74" cy="82.10" r="3.5" fill="#c1121f"/>
<circle cx="189.37" cy="84.58" r="3.5" fill="#c1121f"/>
<circle cx="191.00" cy="87.29" r="3.5" fill="#c1121f"/>
<circle cx="192.63" cy="90.21" r="3.5" fill="#c1121f"/>
<circle cx="194.26" cy="93.36" r="3.5" fill="#c1121f"/>
<circle cx="195.89" cy="96.72" r="3.5" fill="#c1121f"/>
<circle cx="197.52" cy="100.29" r="3.5" fill="#c1121f"/>
<circle cx="199.15" cy="104.07" r="3.5" fill="#c1121f"/>
<circle cx="200.78" cy="108.05" r="3.5" fill="#c1121f"/>
<circle cx="202.41" cy="112.23" r="3.5" fill="#c1121f"/>
<circle cx="204.04" cy="116.61" r="3.5" fill="#c1121f"/>
<circle cx="205.66" cy="121.19" r="3.5" fill="#c1121f"/>
<circle cx="207.29" cy="125.95" r="3.5" fill="#c1121f"/>
<circle cx="208.92" cy="130.89" r="3.5" fill="#c1121f"/>
<circle cx="210.55" cy="136.01" r="3.5" fill="#c1121f"/>
<circle cx="212.18" cy="141.30" r="3.5" fill="#c1121f"/>
<circle cx="213.81" cy="146.76" r="3.5" fill="#c1121f"/>
<circle cx="215.44" cy="152.38" r="3.5" fill="#c1121f"/>
<circle cx="217.07" cy="158.16" r="3.5" fill="#c1121f"/>
<circle cx="218.70" cy="164.08" r="3.5" fill="#c1121f"/>
<circle cx="220.33" cy="170.16" r="3.5" fill="#c1121f"/>
<circle cx="221.95" cy="176.37" r="3.5" fill="#c1121f"/>
<circle cx="223.58" cy="182.71" r="3.5" fill="#c1121f"/>
<circle cx="225.21" cy="189.18" r="3.5" fill="#c1121f"/>
<circle cx="226.84" cy="195.77" r="3.5" fill="#c1121f"/>
<circle cx="228.47" cy="202.48" r="3.5" fill="#c1121f"/>
<circle cx="230.10" cy="209.28" r="3.5" fill="#c1121f"/>
<circle cx="231.73" cy="216.19" r="3.5" fill="#c1121f"/>
<circle cx="233.36" cy="223.20" r="3.5" fill="#c1121f"/>
<circle cx="234.99" cy="230.29" r="3.5" fill="#c1121f"/>
<circle cx="236.62" cy="237.45" r="3.5" fill="#c1121f"/>
<circle cx="238.25" cy="244.69" r="3.5" fill="#c1121f"/>
<circle cx="239.87" cy="252.00" r="3.5" fill="#c1121f"/>
<circle cx="241.50" cy="259.36" r="3.5" fill="#c1121f"/>
<circle cx="243.13" cy="266.77" r="3.5" fill="#c1121f"/>
<circle cx="244.76" cy="274.23" r="3.5" fill="#c1121f"/>
<circle cx="246.39" cy="281.72" r="3.5" fill="#c1121f"/>
<circle cx="248.02" cy="289.24" r="3.5" fill="#c1121f"/>
<circle cx="249.65" cy="296.78" r="3.5" fill="#c1121f"/>
<circle cx="251.28" cy="304.33" r="3.5" fill="#c1121f"/>
<circle cx="252.91" cy="311.89" r="3.5" fill="#c1121f"/>
<circle cx="254.54" cy="319.45" r="3.5" fill="#c1121f"/>
<circle cx="256.17" cy="326.99" r="3.5" fill="#c1121f"/>
<circle cx="257.79" cy="334.52" r="3.5" fill="#c1121f"/>
<circle cx="259.42" cy="342.03" r="3.5" fill="#c1121f"/>
<circle cx="261.05" cy="349.50" r="3.5" fill="#c1121f"/>
<circle cx="262.68" cy="356.94" r="3.5" fill="#c1121f"/>
<circle cx="264.31" cy="364.33" r="3.5" fill="#c1121f"/>
<circle cx="265.94" cy="371.66" r="3.5" fill="#c1121f"/>
<circle cx="267.57" cy="378.93" r="3.5" fill="#c1121f"/>
<circle cx="269.20" cy="386.14" r="3.5" fill="#c1121f"/>
<circle cx="270.83" cy="393.27" r="3.5" fill="#c1121f"/>
<circle cx="272.46" cy="400.31" r="3.5" fill="#c1121f"/>
<circle cx="274.09" cy="407.27" r="3.5" fill="#c1121f"/>
<circle cx="275.71" cy="414.13" r="3.5" fill="#c1121f"/>
<circle cx="277.34" cy="420.89" r="3.5" fill="#c1121f"/>
<circle cx="278.97" cy="427.54" r="3.5" fill="#c1121f"/>
<circle cx="280.60" cy="434.07" r="3.5" fill="#c1121f"/>
<circle cx="282.23" cy="440.48" r="3.5" fill="#c1121f"/>
<circle cx="283.86" cy="446.75" r="3.5" fill="#c1121f"/>
<circle cx="285.49" cy="452.90" r="3.5" fill="#c1121f"/>
<circle cx="287.12" cy="458.90" r="3.5" fill="#c1121f"/>
<circle cx="288.75" cy="464.75" r="3.5" fill="#c1121f"/>
<circle cx="290.38" cy="470.45" r="3.5" fill="#c1121f"/>
<circle cx="292.01" cy="475.99" r="3.5" fill="#c1121f"/>
<circle cx="293.63" cy="481.37" r="3.5" fill="#c1121f"/>
<circle cx="295.26" cy="486.58" r="3.5" fill="#c1121f"/>
<circle cx="296.89" cy="491.61" r="3.5" fill="#c1121f"/>
<circle cx="298.52" cy="496.46" r="3.5" fill="#c1121f"/>
<circle cx="300.15" cy="501.12" r="3.5" fill="#c1121f"/>
<circle cx="301.78" cy="505.60" r="3.5" fill="#c1121f"/>
<circle cx="303.41" cy="509.88" r="3.5" fill="#c1121f"/>
<circle cx="305.04" cy="513.97" r="3.5" fill="#c1121f"/>
<circle cx="306.67" cy="517.85" r="3.5" fill="#c1121f"/>
<circle cx="308.30" cy="521.52" r="3.5" fill="#c1121f"/>
<circle cx="309.92" cy="524.99" r="3.5" fill="#c1121f"/>
<circle cx="311.55" cy="528.24" r="3.5" fill="#c1121f"/>
<circle cx="313.18" cy="531.28" r="3.5" fill="#c1121f"/>
<circle cx="314.81" cy="534.09" r="3.5" fill="#c1121f"/>
<circle cx="316.44" cy="536.69" r="3.5" fill="#c1121f"/>
<circle cx="318.07" cy="539.06" r="3.5" fill="#c1121f"/>
<circle cx="319.70" cy="541.20" r="3.5" fill="#c1121f"/>
<circle cx="321.33" cy="543.11" r="3.5" fill="#c1121f"/>
<circle cx="322.96" cy="544.80" r="3.5" fill="#c1121f"/>
<circle cx="324.59" cy="546.25" r="3.5" fill="#c1121f"/>
<circle cx="326.22" cy="547.46" r="3.5" fill="#c1121f"/>
<circle cx="327.84" cy="548.44" r="3.5" fill="#c1121f"/>
<circle cx="329.47" cy="549.18" r="3.5" fill="#c1121f"/>
<circle cx="331.10" cy="549.69" r="3.5" fill="#c1121f"/>
<circle cx="332.73" cy="549.96" r="3.5" fill="#c1121f"/>
<circle cx="334.36" cy="549.99" r="3.5" fill="#c1121f"/>
<circle cx="335.99" cy="549.78" r="3.5" fill="#c1121f"/>
<circle cx="337.62" cy="549.33" r="3.5" fill="#c1121f"/>
<circle cx="339.25" cy="548.65" r="3.5" fill="#c1121f"/>
<circle cx="340.88" cy="547.73" r="3.5" fill="#c1121f"/>
<circle cx="342.51" cy="546.57" r="3.5" fill="#c1121f"/>
<circle cx="344.14" cy="545.18" r="3.5" fill="#c1121f"/>
<circle cx="345.76" cy="543.56" r="3.5" fill="#c1121f"/>
<circle cx="347.39" cy="541.70" r="3.5" fill="#c1121f"/>
<circle cx="349.02" cy="539.62" r="3.5" fill="#c1121f"/>
<circle cx="350.65" cy="537.30" r="3.5" fill="#c1121f"/>
<circle cx="352.28" cy="534.76" r="3.5" fill="#c1121f"/>
<circle cx="353.91" cy="532.00" r="3.5" fill="#c1121f"/>
<circle cx="355.54" cy="529.02" r="3.5" fill="#c1121f"/>
<circle cx="357.17" cy="525.82" r="3.5" fill="#c1121f"/>
<circle cx="358.80" cy="522.41" r="3.5" fill="#c1121f"/>
<circle cx="360.43" cy="518.79" r="3.5" fill="#c1121f"/>
<circle cx="362.06" cy="514.96" r="3.5" fill="#c1121f"/>
<circle cx="363.68" cy="510.92" r="3.5" fill="#c1121f"/>
<circle cx="365.31" cy="506.69" r="3.5" fill="#c1121f"/>
<circle cx="366.94" cy="502.26" r="3.5" fill="#c1121f"/>
<circle cx="368.57" cy="497.64" r="3.5" fill="#c1121f"/>
<circle cx="370.20" cy="492.84" r="3.5" fill="#c1121f"/>
<circle cx="371.83" cy="487.85" r="3.5" fill="#c1121f"/>
<circle cx="373.46" cy="482.69" r="3.5" fill="#c1121f"/>
<circle cx="375.09" cy="477.35" r="3.5" fill="#c1121f"/>
<circle cx="376.72" cy="471.85" r="3.5" fill="#c1121f"/>
<circle cx="378.35" cy="466.19" r="3.5" fill="#c1121f"/>
<circle cx="379.97" cy="460.38" r="3.5" fill="#c1121f"/>
<circle cx="381.60" cy="454.41" r="3.5" fill="#c1121f"/>
<circle cx="383.23" cy="448.30" r="3.5" fill="#c1121f"/>
<circle cx="384.86" cy="442.06" r="3.5" fill="#c1121f"/>
<circle cx="386.49" cy="435.68" r="3.5" fill="#c1121f"/>
<circle cx="388.12" cy="429.18" r="3.5" fill="#c1121f"/>
<circle cx="389.75" cy="422.56" r="3.5" fill="#c1121f"/>
<circle cx="391.38" cy="415.83" r="3.5" fill="#c1121f"/>
<circle cx="393.01" cy="409.00" r="3.5" fill="#c1121f"/>
<circle cx="394.64" cy="402.06" r="3.5" fill="#c1121f"/>
<circle cx="396.27" cy="395.04" r="3.5" fill="#c1121f"/>
<circle cx="397.89" cy="387.93" r="3.5" fill="#c1121f"/>
<circle cx="399.52" cy="380.74" r="3.5" fill="#c1121f"/>
<circle cx="401.15" cy="373.48" r="3.5" fill="#c1121f"/>
<circle cx="402.78" cy="366.17" r="3.5" fill="#c1121f"/>
<circle cx="404.41" cy="358.79" r="3.5" fill="#c1121f"/>
<circle cx="406.04" cy="351.37" r="3.5" fill="#c1121f"/>
<circle cx="407.67" cy="343.90" r="3.5" fill="#c1121f"/>
<circle cx="409.30" cy="336.40" r="3.5" fill="#c1121f"/>
<circle cx="410.93" cy="328.88" r="3.5" fill="#c1121f"/>
<circle cx="412.56" cy="321.33" r="3.5" fill="#c1121f"/>
<circle cx="414.19" cy="313.78" r="3.5" fill="#c1121f"/>
<circle cx="415.81" cy="306.22" r="3.5" fill="#c1121f"/>
<circle cx="417.44" cy="298.67" r="3.5" fill="#c1121f"/>
<circle cx="419.07" cy="291.12" r="3.5" fill="#c1121f"/>
<circle cx="420.70" cy="283.60" r="3.5" fill="#c1121f"/>
<circle cx="422.33" cy="276.10" r="3.5" fill="#c1121f"/>
<circle cx="423.96" cy="268.63" r="3.5" fill="#c1121f"/>
<circle cx="425.59" cy="261.21" r="3.5" fill="#c1121f"/>
<circle cx="427.22" cy="253.83" r="3.5" fill="#c1121f"/>
<circle cx="428.85" cy="246.52" r="3.5" fill="#c1121f"/>
<circle cx="430.48" cy="239.26" r="3.5" fill="#c1121f"/>
<circle cx="432.11" cy="232.07" r="3.5" fill="#c1121f"/>
<circle cx="433.73" cy="224.96" r="3.5" fill="#c1121f"/>
<circle cx="435.36" cy="217.94" r="3.5" fill="#c1121f"/>
<circle cx="436.99" cy="211.00" r="3.5" fill="#c1121f"/>
<circle cx="438.62" cy="204.17" r="3.5" fill="#c1121f"/>
<circle cx="440.25" cy="197.44" r="3.5" fill="#c1121f"/>
<circle cx="441.88" cy="190.82" r="3.5" fill="#c1121f"/>
<circle cx="443.51" cy="184.32" r="3.5" fill="#c1121f"/>
<circle cx="445.14" cy="177.94" r="3.5" fill="#c1121f"/>
<circle cx="446.77" cy="171.70" r="3.5" fill="#c1121f"/>
<circle cx="448.40" cy="165.59" r="3.5" fill="#c1121f"/>
<circle cx="450.03" cy="159.62" r="3.5" fill="#c1121f"/>
<circle cx="451.65" cy="153.81" r="3.5" fill="#c1121f"/>
<circle cx="453.28" cy="148.15" r="3.5" fill="#c1121f"/>
<circle cx="454.91" cy="142.65" r="3.5" fill="#c1121f"/>
<circle cx="456.54" cy="137.31" r="3.5" fill="#c1121f"/>
<circle cx="458.17" cy="132.15" r="3.5" fill="#c1121f"/>
<circle cx="459.80" cy="127.16" r="3.5" fill="#c1121f"/>
<circle cx="461.43" cy="122.36" r="3.5" fill="#c1121f"/>
<circle cx="463.06" cy="117.74" r="3.5" fill="#c1121f"/>
<circle cx="464.69" cy="113.31" r="3.5" fill="#c1121f"/>
<circle cx="466.32" cy="109.08" r="3.5" fill="#c1121f"/>
<circle cx="467.94" cy="105.04" r="3.5" fill="#c1121f"/>
<circle cx="469.57" cy="101.21" r="3.5" fill="#c1121f"/>
<circle cx="471.20" cy="97.59" r="3.5" fill="#c1121f"/>
<circle cx="472.83" cy="94.18" r="3.5" fill="#c1121f"/>
<circle cx="474.46" cy="90.98" r="3.5" fill="#c1121f"/>
<circle cx="476.09" cy="88.00" r="3.5" fill="#c1121f"/>
<circle cx="477.72" cy="85.24" r="3.5" fill="#c1121f"/>
<circle cx="479.35" cy="82.70" r="3.5" fill="#c1121f"/>
<circle cx="480.98" cy="80.38" r="3.5" fill="#c1121f"/>
<circle cx="482.61" cy="78.30" r="3.5" fill="#c1121f"/>
<circle cx="484.24" cy="76.44" r="3.5" fill="#c1121f"/>
<circle cx="485.86" cy="74.82" r="3.5" fill="#c1121f"/>
<circle cx="487.49" cy="73.43" r="3.5" fill="#c1121f"/>
<circle cx="489.12" cy="72.27" r="3.5" fill="#c1121f"/>
<circle cx="490.75" cy="71.35" r="3.5" fill="#c1121f"/>
<circle cx="492.38" cy="70.67" r="3.5" fill="#c1121f"/>
<circle cx="494.01" cy="70.22" r="3.5" fill="#c1121f"/>
<circle cx="495.64" cy="70.01" r="3.5" fill="#c1121f"/>
<circle cx="497.27" cy="70.04" r="3.5" fill="#c1121f"/>
<circle cx="498.90" cy="70.31" r="3.5" fill="#c1121f"/>
<circle cx="500.53" cy="70.82" r="3.5" fill="#c1121f"/>
<circle cx="502.16" cy="71.56" r="3.5" fill="#c1121f"/>
<circle cx="503.78" cy="72.54" r="3.5" fill="#c1121f"/>
<circle cx="505.41" cy="73.75" r="3.5" fill="#c1121f"/>
<circle cx="507.04" cy="75.20" r="3.5" fill="#c1121f"/>
<circle cx="508.67" cy="76.89" r="3.5" fill="#c1121f"/>
<circle cx="510.30" cy="78.80" r="3.5" fill="#c1121f"/>
<circle cx="511.93" cy="80.94" r="3.5" fill="#c1121f"/>
<circle cx="513.56" cy="83.31" r="3.5" fill="#c1121f"/>
<circle cx="515.19" cy="85.91" r="3.5" fill="#c1121f"/>
<circle cx="516.82" cy="88.72" r="3.5" fill="#c1121f"/>
<circle cx="518.45" cy="91.76" r="3.5" fill="#c1121f"/>
<circle cx="520.08" cy="95.01" r="3.5" fill="#c1121f"/>
<circle cx="521.70" cy="98.48" r="3.5" fill="#c1121f"/>
<circle cx="523.33" cy="102.15" r="3.5" fill="#c1121f"/>
<circle cx="524.96" cy="106.03" r="3.5" fill="#c1121f"/>
<circle cx="526.59" cy="110.12" r="3.5" fill="#c1121f"/>
<circle cx="528.22" cy="114.40" r="3.5" fill="#c1121f"/>
<circle cx="529.85" cy="118.88" r="3.5" fill="#c1121f"/>
<circle cx="531.48" cy="123.54" r="3.5" fill="#c1121f"/>
<circle cx="533.11" cy="128.39" r="3.5" fill="#c1121f"/>
<circle cx="534.74" cy="133.42" r="3.5" fill="#c1121f"/>
<circle cx="536.37" cy="138.63" r="3.5" fill="#c1121f"/>
<circle cx="537.99" cy="144.01" r="3.5" fill="#c1121f"/>
<circle cx="539.62" cy="149.55" r="3.5" fill="#c1121f"/>
<circle cx="541.25" cy="155.25" r="3.5" fill="#c1121f"/>
<circle cx="542.88" cy="161.10" r="3.5" fill="#c1121f"/>
<circle cx="544.51" cy="167.10" r="3.5" fill="#c1121f"/>
<circle cx="546.14" cy="173.25" r="3.5" fill="#c1121f"/>
<circle cx="547.77" cy="179.52" r="3.5" fill="#c1121f"/>
<circle cx="549.40" cy="185.93" r="3.5" fill="#c1121f"/>
<circle cx="551.03" cy="192.46" r="3.5" fill="#c1121f"/>
<circle cx="552.66" cy="199.11" r="3.5" fill="#c1121f"/>
<circle cx="554.29" cy="205.87" r="3.5" fill="#c1121f"/>
<circle cx="555.91" cy="212.73" r="3.5" fill="#c1121f"/>
<circle cx="557.54" cy="219.69" r="3.5" fill="#c1121f"/>
<circle cx="559.17" cy="226.73" r="3.5" fill="#c1121f"/>
<circle cx="560.80" cy="233.86" r="3.5" fill="#c1121f"/>
<circle cx="562.43" cy="241.07" r="3.5" fill="#c1121f"/>
<circle cx="564.06" cy="248.34" r="3.5" fill="#c1121f"/>
<circle cx="565.69" cy="255.67" r="3.5" fill="#c1121f"/>
<circle cx="567.32" cy="263.06" r="3.5" fill="#c1121f"/>
<circle cx="568.95" cy="270.50" r="3.5" fill="#c1121f"/>
<circle cx="570.58" cy="277.97" r="3.5" fill="#c1121f"/>
<circle cx="572.21" cy="285.48" r="3.5" fill="#c1121f"/>
<circle cx="573.83" cy="293.01" r="3.5" fill="#c1121f"/>
<circle cx="575.46" cy="300.55" r="3.5" fill="#c1121f"/>
<circle cx="577.09" cy="308.11" r="3.5" fill="#c1121f"/>
<circle cx="578.72" cy="315.67" r="3.5" fill="#c1121f"/>
<circle cx="580.35" cy="323.22" r="3.5" fill="#c1121f"/>
<circle cx="581.98" cy="330.76" r="3.5" fill="#c1121f"/>
<circle cx="583.61" cy="338.28" r="3.5" fill="#c1121f"/>
<circle cx="585.24" cy="345.77" r="3.5" fill="#c1121f"/>
<circle cx="586.87" cy="353.23" r="3.5" fill="#c1121f"/>
<circle cx="588.50" cy="360.64" r="3.5" fill="#c1121f"/>
<circle cx="590.13" cy="368.00" r="3.5" fill="#c1121f"/>
<circle cx="591.75" cy="375.31" r="3.5" fill="#c1121f"/>
<circle cx="593.38" cy="382.55" r="3.5" fill="#c1121f"/>
<circle cx="595.01" cy="389.71" r="3.5" fill="#c1121f"/>
<circle cx="596.64" cy="396.80" r="3.5" fill="#c1121f"/>
<circle cx="598.27" cy="403.81" r="3.5" fill="#c1121f"/>
<circle cx="599.90" cy="410.72" r="3.5" fill="#c1121f"/>
<circle cx="601.53" cy="417.52" r="3.5" fill="#c1121f"/>
<circle cx="603.16" cy="424.23" r="3.5" fill="#c1121f"/>
<circle cx="604.79" cy="430.82" r="3.5" fill="#c1121f"/>
<circle cx="606.42" cy="437.29" r="3.5" fill="#c1121f"/>
<circle cx="608.05" cy="443.63" r="3.5" fill="#c1121f"/>
<circle cx="609.67" cy="449.84" r="3.5" fill="#c1121f"/>
<circle cx="611.30" cy="455.92" r="3.5" fill="#c1121f"/>
<circle cx="612.93" cy="461.84" r="3.5" fill="#c1121f"/>
<circle cx="614.56" cy="467.62" r="3.5" fill="#c1121f"/>
<circle cx="616.19" cy="473.24" r="3.5" fill="#c1121f"/>
<circle cx="617.82" cy="478.70" r="3.5" fill="#c1121f"/>
<circle cx="619.45" cy="483.99" r="3.5" fill="#c1121f"/>
<circle cx="621.08" cy="489.11" r="3.5" fill="#c1121f"/>
<circle cx="622.71" cy="494.05" r="3.5" fill="#c1121f"/>
<circle cx="624.34" cy="498.81" r="3.5" fill="#c1121f"/>
<circle cx="625.96" cy="503.39" r="3.5" fill="#c1121f"/>
<circle cx="627.59" cy="507.77" r="3.5" fill="#c1121f"/>
<circle cx="629.22" cy="511.95" r="3.5" fill="#c1121f"/>
<circle cx="630.85" cy="515.93" r="3.5" fill="#c1121f"/>
<circle cx="632.48" cy="519.71" r="3.5" fill="#c1121f"/>
<circle cx="634.11" cy="523.28" r="3.5" fill="#c1121f"/>
<circle cx="635.74" cy="526.64" r="3.5" fill="#c1121f"/>
<circle cx="637.37" cy="529.79" r="3.5" fill="#c1121f"/>
<circle cx="639.00" cy="532.71" r="3.5" fill="#c1121f"/>
<circle cx="640.63" cy="535.42" r="3.5" fill="#c1121f"/>
<circle cx="642.26" cy="537.90" r="3.5" fill="#c1121f"/>
<circle cx="643.88" cy="540.16" r="3.5" fill="#c1121f"/>
<circle cx="645.51" cy="542.19" r="3.5" fill="#c1121f"/>
<circle cx="647.14" cy="543.98" r="3.5" fill="#c1121f"/>
<circle cx="648.77" cy="545.55" r="3.5" fill="#c1121f"/>
<circle cx="650.40" cy="546.88" r="3.5" fill="#c1121f"/>
<circle cx="652.03" cy="547.98" r="3.5" fill="#c1121f"/>
<circle cx="653.66" cy="548.84" r="3.5" fill="#c1121f"/>
<circle cx="655.29" cy="549.46" r="3.5" fill="#c1121f"/>
<circle cx="656.92" cy="549.85" r="3.5" fill="#c1121f"/>
<circle cx="658.55" cy="550.00" r="3.5" fill="#c1121f"/>
<circle cx="660.18" cy="549.91" r="3.5" fill="#c1121f"/>
<circle cx="661.80" cy="549.58" r="3.5" fill="#c1121f"/>
<circle cx="663.43" cy="549.02" r="3.5" fill="#c1121f"/>
<circle cx="665.06" cy="548.22" r="3.5" fill="#c1121f"/>
<circle cx="666.69" cy="547.18" r="3.5" fill="#c1121f"/>
<circle cx="668.32" cy="545.91" r="3.5" fill="#c1121f"/>
<circle cx="669.95" cy="544.40" r="3.5" fill="#c1121f"/>
<circle cx="671.58" cy="542.66" r="3.5" fill="#c1121f"/>
<circle cx="673.21" cy="540.69" r="3.5" fill="#c1121f"/>
<circle cx="674.84" cy="538.49" r="3.5" fill="#c1121f"/>
<circle cx="676.47" cy="536.06" r="3.5" fill="#c1121f"/>
<circle cx="678.10" cy="533.41" r="3.5" fill="#c1121f"/>
<circle cx="679.72" cy="530.54" r="3.5" fill="#c1121f"/>
<circle cx="681.35" cy="527.45" r="3.5" fill="#c1121f"/>
<circle cx="682.98" cy="524.14" r="3.5" fill="#c1121f"/>
<circle cx="684.61" cy="520.62" r="3.5" fill="#c1121f"/>
<circle cx="686.24" cy="516.90" r="3.5" fill="#c1121f"/>
<circle cx="687.87" cy="512.96" r="3.5" fill="#c1121f"/>
<circle cx="689.50" cy="508.83" r="3.5" fill="#c1121f"/>
<circle cx="691.13" cy="504.50" r="3.5" fill="#c1121f"/>
<circle cx="692.76" cy="499.97" r="3.5" fill="#c1121f"/>
<circle cx="694.39" cy="495.26" r="3.5" fill="#c1121f"/>
<circle cx="696.02" cy="490.37" r="3.5" fill="#c1121f"/>
<circle cx="697.64" cy="485.29" r="3.5" fill="#c1121f"/>
<circle cx="699.27" cy="480.04" r="3.5" fill="#c1121f"/>
<circle cx="700.90" cy="474.62" r="3.5" fill="#c1121f"/>
<circle cx="702.53" cy="469.04" r="3.5" fill="#c1121f"/>
<circle cx="704.16" cy="463.30" r="3.5" fill="#c1121f"/>
<circle cx="705.79" cy="457.41" r="3.5" fill="#c1121f"/>
<circle cx="707.42" cy="451.38" r="3.5" fill="#c1121f"/>
<circle cx="709.05" cy="445.20" r="3.5" fill="#c1121f"/>
<circle cx="710.68" cy="438.89" r="3.5" fill="#c1121f"/>
<circle cx="712.31" cy="432.45" r="3.5" fill="#c1121f"/>
<circle cx="713.93" cy="425.89" r="3.5" fill="#c1121f"/>
<circle cx="715.56" cy="419.21" r="3.5" fill="#c1121f"/>
<circle cx="717.19" cy="412.43" r="3.5" fill="#c1121f"/>
<circle cx="718.82" cy="405.54" r="3.5" fill="#c1121f"/>
<circle cx="720.45" cy="398.56" r="3.5" fill="#c1121f"/>
<circle cx="722.08" cy="391.49" r="3.5" fill="#c1121f"/>
<circle cx="723.71" cy="384.34" r="3.5" fill="#c1121f"/>
<circle cx="725.34" cy="377.12" r="3.5" fill="#c1121f"/>
<circle cx="726.97" cy="369.83" r="3.5" fill="#c1121f"/>
<circle cx="728.60" cy="362.48" r="3.5" fill="#c1121f"/>
<circle cx="730.23" cy="355.08" r="3.5" fill="#c1121f"/>
<circle cx="731.85" cy="347.64" r="3.5" fill="#c1121f"/>
<circle cx="733.48" cy="340.16" r="3.5" fill="#c1121f"/>
<circle cx="735.11" cy="332.64" r="3.5" fill="#c1121f"/>
<circle cx="736.74" cy="325.11" r="3.5" fill="#c1121f"/>
<circle cx="738.37" cy="317.56" r="3.5" fill="#c1121f"/>
<circle cx="740.00" cy="310.00" r="3.5" fill="#c1121f"/>
<line x1="770" y1="128" x2="798" y2="128" stroke="#c1121f" stroke-width="4"/>
<text x="808" y="133" font-size="15" font-family="Arial">math.sin(x)</text>
</svg>