<svg xmlns="http://www.w3.org/2000/svg" width="960" height="640" viewBox="0 0 960 640">
<rect width="100%" height="100%" fill="#fffdf8"/>
<text x="480.0" y="36" text-anchor="middle" font-size="24" font-family="Arial">Задание 5: ошибка производной</text>
<rect x="90" y="70" width="650" height="480" fill="#ffffff" stroke="#d1d5db"/>
<line x1="-83.33" y1="70" x2="-83.33" y2="550" stroke="#e5e7eb" stroke-width="1"/>
<text x="-83.33" y="578" text-anchor="middle" font-size="14" font-family="Arial">1e-20</text>
<line x1="133.33" y1="70" x2="133.33" y2="550" stroke="#e5e7eb" stroke-width="1"/>
<text x="133.33" y="578" text-anchor="middle" font-size="14" font-family="Arial">1e-15</text>
<line x1="350.00" y1="70" x2="350.00" y2="550" stroke="#e5e7eb" stroke-width="1"/>
<text x="350.00" y="578" text-anchor="middle" font-size="14" font-family="Arial">1e-10</text>
<line x1="566.67" y1="70" x2="566.67" y2="550" stroke="#e5e7eb" stroke-width="1"/>
<text x="566.67" y="578" text-anchor="middle" font-size="14" font-family="Arial">1e-5</text>
<line x1="783.33" y1="70" x2="783.33" y2="550" stroke="#e5e7eb" stroke-width="1"/>
<text x="783.33" y="578" text-anchor="middle" font-size="14" font-family="Arial">1e0</text>
<line x1="90" y1="582.96" x2="740" y2="582.96" stroke="#e5e7eb" stroke-width="1"/>
<text x="78" y="587.96" text-anchor="end" font-size="14" font-family="Arial">1e-8</text>
<line x1="90" y1="454.48" x2="740" y2="454.48" stroke="#e5e7eb" stroke-width="1"/>
<text x="78" y="459.48" text-anchor="end" font-size="14" font-family="Arial">1e-6</text>
<line x1="90" y1="326.01" x2="740" y2="326.01" stroke="#e5e7eb" stroke-width="1"/>
<text x="78" y="331.01" text-anchor="end" font-size="14" font-family="Arial">1e-4</text>
<line x1="90" y1="197.54" x2="740" y2="197.54" stroke="#e5e7eb" stroke-width="1"/>
<text x="78" y="202.54" text-anchor="end" font-size="14" font-family="Arial">1e-2</text>
<line x1="90" y1="69.07" x2="740" y2="69.07" stroke="#e5e7eb" stroke-width="1"/>
<text x="78" y="74.07" text-anchor="end" font-size="14" font-family="Arial">1e0</text>
<text x="415.0" y="616" text-anchor="middle" font-size="18" font-family="Arial">h</text>
<text x="28" y="310.0" text-anchor="middle" font-size="18" font-family="Arial" transform="rotate(-90 28 310.0)">|error|</text>
<polyline fill="none" stroke="#0b6e4f" stroke-width="3" points="740.00,110.08 696.67,173.85 653.33,238.05 610.00,302.28 566.67,366.52 523.33,430.76 480.00,495.19 436.67,550.00 393.33,477.88 350.00,457.42 306.67,350.97 263.33,317.28 220.00,261.09 176.67,162.99 133.33,139.91 90.00,70.00"/>
<circle cx="740.00" cy="110.08" r="3.5" fill="#0b6e4f"/>
<circle cx="696.67" cy="173.85" r="3.5" fill="#0b6e4f"/>
<circle cx="653.33" cy="238.05" r="3.5" fill="#0b6e4f"/>
<circle cx="610.00" cy="302.28" r="3.5" fill="#0b6e4f"/>
<circle cx="566.67" cy="366.52" r="3.5" fill="#0b6e4f"/>
<circle cx="523.33" cy="430.76" r="3.5" fill="#0b6e4f"/>
<circle cx="480.00" cy="495.19" r="3.5" fill="#0b6e4f"/>
<circle cx="436.67" cy="550.00" r="3.5" fill="#0b6e4f"/>
<circle cx="393.33" cy="477.88" r="3.5" fill="#0b6e4f"/>
<circle cx="350.00" cy="457.42" r="3.5" fill="#0b6e4f"/>
<circle cx="306.67" cy="350.97" r="3.5" fill="#0b6e4f"/>
<circle cx="263.33" cy="317.28" r="3.5" fill="#0b6e4f"/>
<circle cx="220.00" cy="261.09" r="3.5" fill="#0b6e4f"/>
<circle cx="176.67" cy="162.99" r="3.5" fill="#0b6e4f"/>
<circle cx="133.33" cy="139.91" r="3.5" fill="#0b6e4f"/>
<circle cx="90.00" cy="70.00" r="3.5" fill="#0b6e4f"/>
<line x1="770" y1="100" x2="798" y2="100" stroke="#0b6e4f" stroke-width="4"/>
<text x="808" y="105" font-size="15" font-family="Arial">Прямая разность</text>
</svg>