<svg xmlns="http://www.w3.org/2000/svg" width="960" height="640" viewBox="0 0 960 640">
<rect width="100%" height="100%" fill="#fffdf8"/>
<text x="480.0" y="36" text-anchor="middle" font-size="24" font-family="Arial">Задание 8: сходимость метода Ньютона</text>
<rect x="90" y="70" width="650" height="480" fill="#ffffff" stroke="#d1d5db"/>
<line x1="90.00" y1="70" x2="90.00" y2="550" stroke="#e5e7eb" stroke-width="1"/>
<text x="90.00" y="578" text-anchor="middle" font-size="14" font-family="Arial">0</text>
<line x1="220.00" y1="70" x2="220.00" y2="550" stroke="#e5e7eb" stroke-width="1"/>
<text x="220.00" y="578" text-anchor="middle" font-size="14" font-family="Arial">2</text>
<line x1="350.00" y1="70" x2="350.00" y2="550" stroke="#e5e7eb" stroke-width="1"/>
<text x="350.00" y="578" text-anchor="middle" font-size="14" font-family="Arial">4</text>
<line x1="480.00" y1="70" x2="480.00" y2="550" stroke="#e5e7eb" stroke-width="1"/>
<text x="480.00" y="578" text-anchor="middle" font-size="14" font-family="Arial">6</text>
<line x1="610.00" y1="70" x2="610.00" y2="550" stroke="#e5e7eb" stroke-width="1"/>
<text x="610.00" y="578" text-anchor="middle" font-size="14" font-family="Arial">8</text>
<line x1="740.00" y1="70" x2="740.00" y2="550" stroke="#e5e7eb" stroke-width="1"/>
<text x="740.00" y="578" text-anchor="middle" font-size="14" font-family="Arial">10</text>
<line x1="90" y1="663.42" x2="740" y2="663.42" stroke="#e5e7eb" stroke-width="1"/>
<text x="78" y="668.42" text-anchor="end" font-size="14" font-family="Arial">1e-20</text>
<line x1="90" y1="521.65" x2="740" y2="521.65" stroke="#e5e7eb" stroke-width="1"/>
<text x="78" y="526.65" text-anchor="end" font-size="14" font-family="Arial">1e-15</text>
<line x1="90" y1="379.87" x2="740" y2="379.87" stroke="#e5e7eb" stroke-width="1"/>
<text x="78" y="384.87" text-anchor="end" font-size="14" font-family="Arial">1e-10</text>
<line x1="90" y1="238.10" x2="740" y2="238.10" stroke="#e5e7eb" stroke-width="1"/>
<text x="78" y="243.10" text-anchor="end" font-size="14" font-family="Arial">1e-5</text>
<line x1="90" y1="96.32" x2="740" y2="96.32" stroke="#e5e7eb" stroke-width="1"/>
<text x="78" y="101.32" text-anchor="end" font-size="14" font-family="Arial">1e0</text>
<line x1="90" y1="-45.45" x2="740" y2="-45.45" stroke="#e5e7eb" stroke-width="1"/>
<text x="78" y="-40.45" text-anchor="end" font-size="14" font-family="Arial">1e5</text>
<text x="415.0" y="616" text-anchor="middle" font-size="18" font-family="Arial">Итерация</text>
<text x="28" y="310.0" text-anchor="middle" font-size="18" font-family="Arial" transform="rotate(-90 28 310.0)">|x_k - root|</text>
<polyline fill="none" stroke="#0b6e4f" stroke-width="3" points="90.00,143.68 155.00,193.99 220.00,294.91 285.00,496.59 350.00,550.00"/>
<circle cx="90.00" cy="143.68" r="3.5" fill="#0b6e4f"/>
<circle cx="155.00" cy="193.99" r="3.5" fill="#0b6e4f"/>
<circle cx="220.00" cy="294.91" r="3.5" fill="#0b6e4f"/>
<circle cx="285.00" cy="496.59" r="3.5" fill="#0b6e4f"/>
<circle cx="350.00" cy="550.00" r="3.5" fill="#0b6e4f"/>
<line x1="770" y1="100" x2="798" y2="100" stroke="#0b6e4f" stroke-width="4"/>
<text x="808" y="105" font-size="15" font-family="Arial">x0=1.5, gamma=1</text>
<polyline fill="none" stroke="#c1121f" stroke-width="3" points="90.00,70.00 155.00,76.08 220.00,82.83 285.00,90.77 350.00,100.96 415.00,115.82 480.00,141.08 545.00,189.44 610.00,285.82 675.00,478.52 740.00,550.00"/>
<circle cx="90.00" cy="70.00" r="3.5" fill="#c1121f"/>
<circle cx="155.00" cy="76.08" r="3.5" fill="#c1121f"/>
<circle cx="220.00" cy="82.83" r="3.5" fill="#c1121f"/>
<circle cx="285.00" cy="90.77" r="3.5" fill="#c1121f"/>
<circle cx="350.00" cy="100.96" r="3.5" fill="#c1121f"/>
<circle cx="415.00" cy="115.82" r="3.5" fill="#c1121f"/>
<circle cx="480.00" cy="141.08" r="3.5" fill="#c1121f"/>
<circle cx="545.00" cy="189.44" r="3.5" fill="#c1121f"/>
<circle cx="610.00" cy="285.82" r="3.5" fill="#c1121f"/>
<circle cx="675.00" cy="478.52" r="3.5" fill="#c1121f"/>
<circle cx="740.00" cy="550.00" r="3.5" fill="#c1121f"/>
<line x1="770" y1="128" x2="798" y2="128" stroke="#c1121f" stroke-width="4"/>
<text x="808" y="133" font-size="15" font-family="Arial">x0=10, gamma=1</text>
</svg>