<svg xmlns="http://www.w3.org/2000/svg" width="960" height="640" viewBox="0 0 960 640">
<rect width="100%" height="100%" fill="#fffdf8"/>
<text x="480.0" y="36" text-anchor="middle" font-size="24" font-family="Arial">Задание 3б: ln(x)</text>
<rect x="90" y="70" width="650" height="480" fill="#ffffff" stroke="#d1d5db"/>
<line x1="62.92" y1="70" x2="62.92" y2="550" stroke="#e5e7eb" stroke-width="1"/>
<text x="62.92" y="578" text-anchor="middle" font-size="14" font-family="Arial">0</text>
<line x1="198.33" y1="70" x2="198.33" y2="550" stroke="#e5e7eb" stroke-width="1"/>
<text x="198.33" y="578" text-anchor="middle" font-size="14" font-family="Arial">1</text>
<line x1="333.75" y1="70" x2="333.75" y2="550" stroke="#e5e7eb" stroke-width="1"/>
<text x="333.75" y="578" text-anchor="middle" font-size="14" font-family="Arial">2</text>
<line x1="469.17" y1="70" x2="469.17" y2="550" stroke="#e5e7eb" stroke-width="1"/>
<text x="469.17" y="578" text-anchor="middle" font-size="14" font-family="Arial">3</text>
<line x1="604.58" y1="70" x2="604.58" y2="550" stroke="#e5e7eb" stroke-width="1"/>
<text x="604.58" y="578" text-anchor="middle" font-size="14" font-family="Arial">4</text>
<line x1="740.00" y1="70" x2="740.00" y2="550" stroke="#e5e7eb" stroke-width="1"/>
<text x="740.00" y="578" text-anchor="middle" font-size="14" font-family="Arial">5</text>
<line x1="90" y1="608.24" x2="740" y2="608.24" stroke="#e5e7eb" stroke-width="1"/>
<text x="78" y="613.24" text-anchor="end" font-size="14" font-family="Arial">-2</text>
<line x1="90" y1="459.12" x2="740" y2="459.12" stroke="#e5e7eb" stroke-width="1"/>
<text x="78" y="464.12" text-anchor="end" font-size="14" font-family="Arial">-1</text>
<line x1="90" y1="310.00" x2="740" y2="310.00" stroke="#e5e7eb" stroke-width="1"/>
<text x="78" y="315.00" text-anchor="end" font-size="14" font-family="Arial">0</text>
<line x1="90" y1="160.88" x2="740" y2="160.88" stroke="#e5e7eb" stroke-width="1"/>
<text x="78" y="165.88" text-anchor="end" font-size="14" font-family="Arial">1</text>
<line x1="90" y1="11.76" x2="740" y2="11.76" stroke="#e5e7eb" stroke-width="1"/>
<text x="78" y="16.76" text-anchor="end" font-size="14" font-family="Arial">2</text>
<text x="415.0" y="616" text-anchor="middle" font-size="18" font-family="Arial">x</text>
<text x="28" y="310.0" text-anchor="middle" font-size="18" font-family="Arial" transform="rotate(-90 28 310.0)">y</text>
<polyline fill="none" stroke="#0b6e4f" stroke-width="3" points="90.00,550.00 91.63,541.29 93.26,533.06 94.89,525.26 96.52,517.85 98.15,510.79 99.77,504.05 101.40,497.60 103.03,491.42 104.66,485.48 106.29,479.77 107.92,474.27 109.55,468.97 111.18,463.85 112.81,458.90 114.44,454.11 116.07,449.47 117.69,444.97 119.32,440.60 120.95,436.35 122.58,432.22 124.21,428.20 125.84,424.29 127.47,420.48 129.10,416.76 130.73,413.14 132.36,409.60 133.98,406.14 135.61,402.76 137.24,399.46 138.87,396.22 140.50,393.06 142.13,389.96 143.76,386.92 145.39,383.95 147.02,381.03 148.65,378.17 150.28,375.36 151.90,372.61 153.53,369.90 155.16,367.25 156.79,364.64 158.42,362.07 160.05,359.55 161.68,357.07 163.31,354.63 164.94,352.23 166.57,349.87 168.20,347.54 169.82,345.25 171.45,343.00 173.08,340.77 174.71,338.58 176.34,336.43 177.97,334.30 179.60,332.20 181.23,330.14 182.86,328.10 184.49,326.09 186.12,324.10 187.74,322.14 189.37,320.21 191.00,318.30 192.63,316.41 194.26,314.55 195.89,312.72 197.52,310.90 199.15,309.11 200.78,307.33 202.41,305.58 204.04,303.85 205.66,302.14 207.29,300.45 208.92,298.77 210.55,297.12 212.18,295.48 213.81,293.86 215.44,292.26 217.07,290.68 218.70,289.11 220.33,287.56 221.95,286.02 223.58,284.50 225.21,283.00 226.84,281.51 228.47,280.04 230.10,278.57 231.73,277.13 233.36,275.70 234.99,274.28 236.62,272.87 238.25,271.48 239.87,270.10 241.50,268.74 243.13,267.38 244.76,266.04 246.39,264.71 248.02,263.39 249.65,262.08 251.28,260.79 252.91,259.51 254.54,258.23 256.17,256.97 257.79,255.72 259.42,254.48 261.05,253.25 262.68,252.02 264.31,250.81 265.94,249.61 267.57,248.42 269.20,247.24 270.83,246.06 272.46,244.90 274.09,243.75 275.71,242.60 277.34,241.46 278.97,240.33 280.60,239.21 282.23,238.10 283.86,237.00 285.49,235.90 287.12,234.82 288.75,233.74 290.38,232.66 292.01,231.60 293.63,230.54 295.26,229.49 296.89,228.45 298.52,227.42 300.15,226.39 301.78,225.37 303.41,224.36 305.04,223.35 306.67,222.35 308.30,221.36 309.92,220.37 311.55,219.39 313.18,218.41 314.81,217.45 316.44,216.49 318.07,215.53 319.70,214.58 321.33,213.64 322.96,212.70 324.59,211.77 326.22,210.84 327.84,209.93 329.47,209.01 331.10,208.10 332.73,207.20 334.36,206.30 335.99,205.41 337.62,204.52 339.25,203.64 340.88,202.76 342.51,201.89 344.14,201.03 345.76,200.17 347.39,199.31 349.02,198.46 350.65,197.61 352.28,196.77 353.91,195.93 355.54,195.10 357.17,194.27 358.80,193.45 360.43,192.63 362.06,191.81 363.68,191.00 365.31,190.20 366.94,189.40 368.57,188.60 370.20,187.81 371.83,187.02 373.46,186.24 375.09,185.46 376.72,184.68 378.35,183.91 379.97,183.14 381.60,182.37 383.23,181.61 384.86,180.86 386.49,180.11 388.12,179.36 389.75,178.61 391.38,177.87 393.01,177.13 394.64,176.40 396.27,175.67 397.89,174.94 399.52,174.22 401.15,173.50 402.78,172.78 404.41,172.07 406.04,171.36 407.67,170.65 409.30,169.95 410.93,169.25 412.56,168.55 414.19,167.86 415.81,167.17 417.44,166.48 419.07,165.80 420.70,165.12 422.33,164.44 423.96,163.77 425.59,163.10 427.22,162.43 428.85,161.76 430.48,161.10 432.11,160.44 433.73,159.78 435.36,159.13 436.99,158.48 438.62,157.83 440.25,157.19 441.88,156.54 443.51,155.90 445.14,155.27 446.77,154.63 448.40,154.00 450.03,153.37 451.65,152.75 453.28,152.12 454.91,151.50 456.54,150.88 458.17,150.27 459.80,149.65 461.43,149.04 463.06,148.43 464.69,147.83 466.32,147.22 467.94,146.62 469.57,146.03 471.20,145.43 472.83,144.84 474.46,144.24 476.09,143.65 477.72,143.07 479.35,142.48 480.98,141.90 482.61,141.32 484.24,140.74 485.86,140.17 487.49,139.59 489.12,139.02 490.75,138.45 492.38,137.89 494.01,137.32 495.64,136.76 497.27,136.20 498.90,135.64 500.53,135.09 502.16,134.53 503.78,133.98 505.41,133.43 507.04,132.88 508.67,132.34 510.30,131.79 511.93,131.25 513.56,130.71 515.19,130.17 516.82,129.64 518.45,129.10 520.08,128.57 521.70,128.04 523.33,127.51 524.96,126.98 526.59,126.46 528.22,125.94 529.85,125.41 531.48,124.90 533.11,124.38 534.74,123.86 536.37,123.35 537.99,122.84 539.62,122.33 541.25,121.82 542.88,121.31 544.51,120.80 546.14,120.30 547.77,119.80 549.40,119.30 551.03,118.80 552.66,118.30 554.29,117.81 555.91,117.31 557.54,116.82 559.17,116.33 560.80,115.84 562.43,115.36 564.06,114.87 565.69,114.39 567.32,113.90 568.95,113.42 570.58,112.94 572.21,112.47 573.83,111.99 575.46,111.52 577.09,111.04 578.72,110.57 580.35,110.10 581.98,109.63 583.61,109.16 585.24,108.70 586.87,108.23 588.50,107.77 590.13,107.31 591.75,106.85 593.38,106.39 595.01,105.93 596.64,105.48 598.27,105.02 599.90,104.57 601.53,104.12 603.16,103.67 604.79,103.22 606.42,102.77 608.05,102.33 609.67,101.88 611.30,101.44 612.93,100.99 614.56,100.55 616.19,100.11 617.82,99.68 619.45,99.24 621.08,98.80 622.71,98.37 624.34,97.93 625.96,97.50 627.59,97.07 629.22,96.64 630.85,96.21 632.48,95.79 634.11,95.36 635.74,94.94 637.37,94.51 639.00,94.09 640.63,93.67 642.26,93.25 643.88,92.83 645.51,92.41 647.14,92.00 648.77,91.58 650.40,91.17 652.03,90.75 653.66,90.34 655.29,89.93 656.92,89.52 658.55,89.11 660.18,88.71 661.80,88.30 663.43,87.89 665.06,87.49 666.69,87.09 668.32,86.69 669.95,86.29 671.58,85.89 673.21,85.49 674.84,85.09 676.47,84.69 678.10,84.30 679.72,83.90 681.35,83.51 682.98,83.12 684.61,82.73 686.24,82.34 687.87,81.95 689.50,81.56 691.13,81.17 692.76,80.79 694.39,80.40 696.02,80.02 697.64,79.63 699.27,79.25 700.90,78.87 702.53,78.49 704.16,78.11 705.79,77.73 707.42,77.35 709.05,76.98 710.68,76.60 712.31,76.23 713.93,75.85 715.56,75.48 717.19,75.11 718.82,74.74 720.45,74.37 722.08,74.00 723.71,73.63 725.34,73.26 726.97,72.90 728.60,72.53 730.23,72.17 731.85,71.80 733.48,71.44 735.11,71.08 736.74,70.72 738.37,70.36 740.00,70.00"/>
<circle cx="90.00" cy="550.00" r="3.5" fill="#0b6e4f"/>
<circle cx="91.63" cy="541.29" r="3.5" fill="#0b6e4f"/>
<circle cx="93.26" cy="533.06" r="3.5" fill="#0b6e4f"/>
<circle cx="94.89" cy="525.26" r="3.5" fill="#0b6e4f"/>
<circle cx="96.52" cy="517.85" r="3.5" fill="#0b6e4f"/>
<circle cx="98.15" cy="510.79" r="3.5" fill="#0b6e4f"/>
<circle cx="99.77" cy="504.05" r="3.5" fill="#0b6e4f"/>
<circle cx="101.40" cy="497.60" r="3.5" fill="#0b6e4f"/>
<circle cx="103.03" cy="491.42" r="3.5" fill="#0b6e4f"/>
<circle cx="104.66" cy="485.48" r="3.5" fill="#0b6e4f"/>
<circle cx="106.29" cy="479.77" r="3.5" fill="#0b6e4f"/>
<circle cx="107.92" cy="474.27" r="3.5" fill="#0b6e4f"/>
<circle cx="109.55" cy="468.97" r="3.5" fill="#0b6e4f"/>
<circle cx="111.18" cy="463.85" r="3.5" fill="#0b6e4f"/>
<circle cx="112.81" cy="458.90" r="3.5" fill="#0b6e4f"/>
<circle cx="114.44" cy="454.11" r="3.5" fill="#0b6e4f"/>
<circle cx="116.07" cy="449.47" r="3.5" fill="#0b6e4f"/>
<circle cx="117.69" cy="444.97" r="3.5" fill="#0b6e4f"/>
<circle cx="119.32" cy="440.60" r="3.5" fill="#0b6e4f"/>
<circle cx="120.95" cy="436.35" r="3.5" fill="#0b6e4f"/>
<circle cx="122.58" cy="432.22" r="3.5" fill="#0b6e4f"/>
<circle cx="124.21" cy="428.20" r="3.5" fill="#0b6e4f"/>
<circle cx="125.84" cy="424.29" r="3.5" fill="#0b6e4f"/>
<circle cx="127.47" cy="420.48" r="3.5" fill="#0b6e4f"/>
<circle cx="129.10" cy="416.76" r="3.5" fill="#0b6e4f"/>
<circle cx="130.73" cy="413.14" r="3.5" fill="#0b6e4f"/>
<circle cx="132.36" cy="409.60" r="3.5" fill="#0b6e4f"/>
<circle cx="133.98" cy="406.14" r="3.5" fill="#0b6e4f"/>
<circle cx="135.61" cy="402.76" r="3.5" fill="#0b6e4f"/>
<circle cx="137.24" cy="399.46" r="3.5" fill="#0b6e4f"/>
<circle cx="138.87" cy="396.22" r="3.5" fill="#0b6e4f"/>
<circle cx="140.50" cy="393.06" r="3.5" fill="#0b6e4f"/>
<circle cx="142.13" cy="389.96" r="3.5" fill="#0b6e4f"/>
<circle cx="143.76" cy="386.92" r="3.5" fill="#0b6e4f"/>
<circle cx="145.39" cy="383.95" r="3.5" fill="#0b6e4f"/>
<circle cx="147.02" cy="381.03" r="3.5" fill="#0b6e4f"/>
<circle cx="148.65" cy="378.17" r="3.5" fill="#0b6e4f"/>
<circle cx="150.28" cy="375.36" r="3.5" fill="#0b6e4f"/>
<circle cx="151.90" cy="372.61" r="3.5" fill="#0b6e4f"/>
<circle cx="153.53" cy="369.90" r="3.5" fill="#0b6e4f"/>
<circle cx="155.16" cy="367.25" r="3.5" fill="#0b6e4f"/>
<circle cx="156.79" cy="364.64" r="3.5" fill="#0b6e4f"/>
<circle cx="158.42" cy="362.07" r="3.5" fill="#0b6e4f"/>
<circle cx="160.05" cy="359.55" r="3.5" fill="#0b6e4f"/>
<circle cx="161.68" cy="357.07" r="3.5" fill="#0b6e4f"/>
<circle cx="163.31" cy="354.63" r="3.5" fill="#0b6e4f"/>
<circle cx="164.94" cy="352.23" r="3.5" fill="#0b6e4f"/>
<circle cx="166.57" cy="349.87" r="3.5" fill="#0b6e4f"/>
<circle cx="168.20" cy="347.54" r="3.5" fill="#0b6e4f"/>
<circle cx="169.82" cy="345.25" r="3.5" fill="#0b6e4f"/>
<circle cx="171.45" cy="343.00" r="3.5" fill="#0b6e4f"/>
<circle cx="173.08" cy="340.77" r="3.5" fill="#0b6e4f"/>
<circle cx="174.71" cy="338.58" r="3.5" fill="#0b6e4f"/>
<circle cx="176.34" cy="336.43" r="3.5" fill="#0b6e4f"/>
<circle cx="177.97" cy="334.30" r="3.5" fill="#0b6e4f"/>
<circle cx="179.60" cy="332.20" r="3.5" fill="#0b6e4f"/>
<circle cx="181.23" cy="330.14" r="3.5" fill="#0b6e4f"/>
<circle cx="182.86" cy="328.10" r="3.5" fill="#0b6e4f"/>
<circle cx="184.49" cy="326.09" r="3.5" fill="#0b6e4f"/>
<circle cx="186.12" cy="324.10" r="3.5" fill="#0b6e4f"/>
<circle cx="187.74" cy="322.14" r="3.5" fill="#0b6e4f"/>
<circle cx="189.37" cy="320.21" r="3.5" fill="#0b6e4f"/>
<circle cx="191.00" cy="318.30" r="3.5" fill="#0b6e4f"/>
<circle cx="192.63" cy="316.41" r="3.5" fill="#0b6e4f"/>
<circle cx="194.26" cy="314.55" r="3.5" fill="#0b6e4f"/>
<circle cx="195.89" cy="312.72" r="3.5" fill="#0b6e4f"/>
<circle cx="197.52" cy="310.90" r="3.5" fill="#0b6e4f"/>
<circle cx="199.15" cy="309.11" r="3.5" fill="#0b6e4f"/>
<circle cx="200.78" cy="307.33" r="3.5" fill="#0b6e4f"/>
<circle cx="202.41" cy="305.58" r="3.5" fill="#0b6e4f"/>
<circle cx="204.04" cy="303.85" r="3.5" fill="#0b6e4f"/>
<circle cx="205.66" cy="302.14" r="3.5" fill="#0b6e4f"/>
<circle cx="207.29" cy="300.45" r="3.5" fill="#0b6e4f"/>
<circle cx="208.92" cy="298.77" r="3.5" fill="#0b6e4f"/>
<circle cx="210.55" cy="297.12" r="3.5" fill="#0b6e4f"/>
<circle cx="212.18" cy="295.48" r="3.5" fill="#0b6e4f"/>
<circle cx="213.81" cy="293.86" r="3.5" fill="#0b6e4f"/>
<circle cx="215.44" cy="292.26" r="3.5" fill="#0b6e4f"/>
<circle cx="217.07" cy="290.68" r="3.5" fill="#0b6e4f"/>
<circle cx="218.70" cy="289.11" r="3.5" fill="#0b6e4f"/>
<circle cx="220.33" cy="287.56" r="3.5" fill="#0b6e4f"/>
<circle cx="221.95" cy="286.02" r="3.5" fill="#0b6e4f"/>
<circle cx="223.58" cy="284.50" r="3.5" fill="#0b6e4f"/>
<circle cx="225.21" cy="283.00" r="3.5" fill="#0b6e4f"/>
<circle cx="226.84" cy="281.51" r="3.5" fill="#0b6e4f"/>
<circle cx="228.47" cy="280.04" r="3.5" fill="#0b6e4f"/>
<circle cx="230.10" cy="278.57" r="3.5" fill="#0b6e4f"/>
<circle cx="231.73" cy="277.13" r="3.5" fill="#0b6e4f"/>
<circle cx="233.36" cy="275.70" r="3.5" fill="#0b6e4f"/>
<circle cx="234.99" cy="274.28" r="3.5" fill="#0b6e4f"/>
<circle cx="236.62" cy="272.87" r="3.5" fill="#0b6e4f"/>
<circle cx="238.25" cy="271.48" r="3.5" fill="#0b6e4f"/>
<circle cx="239.87" cy="270.10" r="3.5" fill="#0b6e4f"/>
<circle cx="241.50" cy="268.74" r="3.5" fill="#0b6e4f"/>
<circle cx="243.13" cy="267.38" r="3.5" fill="#0b6e4f"/>
<circle cx="244.76" cy="266.04" r="3.5" fill="#0b6e4f"/>
<circle cx="246.39" cy="264.71" r="3.5" fill="#0b6e4f"/>
<circle cx="248.02" cy="263.39" r="3.5" fill="#0b6e4f"/>
<circle cx="249.65" cy="262.08" r="3.5" fill="#0b6e4f"/>
<circle cx="251.28" cy="260.79" r="3.5" fill="#0b6e4f"/>
<circle cx="252.91" cy="259.51" r="3.5" fill="#0b6e4f"/>
<circle cx="254.54" cy="258.23" r="3.5" fill="#0b6e4f"/>
<circle cx="256.17" cy="256.97" r="3.5" fill="#0b6e4f"/>
<circle cx="257.79" cy="255.72" r="3.5" fill="#0b6e4f"/>
<circle cx="259.42" cy="254.48" r="3.5" fill="#0b6e4f"/>
<circle cx="261.05" cy="253.25" r="3.5" fill="#0b6e4f"/>
<circle cx="262.68" cy="252.02" r="3.5" fill="#0b6e4f"/>
<circle cx="264.31" cy="250.81" r="3.5" fill="#0b6e4f"/>
<circle cx="265.94" cy="249.61" r="3.5" fill="#0b6e4f"/>
<circle cx="267.57" cy="248.42" r="3.5" fill="#0b6e4f"/>
<circle cx="269.20" cy="247.24" r="3.5" fill="#0b6e4f"/>
<circle cx="270.83" cy="246.06" r="3.5" fill="#0b6e4f"/>
<circle cx="272.46" cy="244.90" r="3.5" fill="#0b6e4f"/>
<circle cx="274.09" cy="243.75" r="3.5" fill="#0b6e4f"/>
<circle cx="275.71" cy="242.60" r="3.5" fill="#0b6e4f"/>
<circle cx="277.34" cy="241.46" r="3.5" fill="#0b6e4f"/>
<circle cx="278.97" cy="240.33" r="3.5" fill="#0b6e4f"/>
<circle cx="280.60" cy="239.21" r="3.5" fill="#0b6e4f"/>
<circle cx="282.23" cy="238.10" r="3.5" fill="#0b6e4f"/>
<circle cx="283.86" cy="237.00" r="3.5" fill="#0b6e4f"/>
<circle cx="285.49" cy="235.90" r="3.5" fill="#0b6e4f"/>
<circle cx="287.12" cy="234.82" r="3.5" fill="#0b6e4f"/>
<circle cx="288.75" cy="233.74" r="3.5" fill="#0b6e4f"/>
<circle cx="290.38" cy="232.66" r="3.5" fill="#0b6e4f"/>
<circle cx="292.01" cy="231.60" r="3.5" fill="#0b6e4f"/>
<circle cx="293.63" cy="230.54" r="3.5" fill="#0b6e4f"/>
<circle cx="295.26" cy="229.49" r="3.5" fill="#0b6e4f"/>
<circle cx="296.89" cy="228.45" r="3.5" fill="#0b6e4f"/>
<circle cx="298.52" cy="227.42" r="3.5" fill="#0b6e4f"/>
<circle cx="300.15" cy="226.39" r="3.5" fill="#0b6e4f"/>
<circle cx="301.78" cy="225.37" r="3.5" fill="#0b6e4f"/>
<circle cx="303.41" cy="224.36" r="3.5" fill="#0b6e4f"/>
<circle cx="305.04" cy="223.35" r="3.5" fill="#0b6e4f"/>
<circle cx="306.67" cy="222.35" r="3.5" fill="#0b6e4f"/>
<circle cx="308.30" cy="221.36" r="3.5" fill="#0b6e4f"/>
<circle cx="309.92" cy="220.37" r="3.5" fill="#0b6e4f"/>
<circle cx="311.55" cy="219.39" r="3.5" fill="#0b6e4f"/>
<circle cx="313.18" cy="218.41" r="3.5" fill="#0b6e4f"/>
<circle cx="314.81" cy="217.45" r="3.5" fill="#0b6e4f"/>
<circle cx="316.44" cy="216.49" r="3.5" fill="#0b6e4f"/>
<circle cx="318.07" cy="215.53" r="3.5" fill="#0b6e4f"/>
<circle cx="319.70" cy="214.58" r="3.5" fill="#0b6e4f"/>
<circle cx="321.33" cy="213.64" r="3.5" fill="#0b6e4f"/>
<circle cx="322.96" cy="212.70" r="3.5" fill="#0b6e4f"/>
<circle cx="324.59" cy="211.77" r="3.5" fill="#0b6e4f"/>
<circle cx="326.22" cy="210.84" r="3.5" fill="#0b6e4f"/>
<circle cx="327.84" cy="209.93" r="3.5" fill="#0b6e4f"/>
<circle cx="329.47" cy="209.01" r="3.5" fill="#0b6e4f"/>
<circle cx="331.10" cy="208.10" r="3.5" fill="#0b6e4f"/>
<circle cx="332.73" cy="207.20" r="3.5" fill="#0b6e4f"/>
<circle cx="334.36" cy="206.30" r="3.5" fill="#0b6e4f"/>
<circle cx="335.99" cy="205.41" r="3.5" fill="#0b6e4f"/>
<circle cx="337.62" cy="204.52" r="3.5" fill="#0b6e4f"/>
<circle cx="339.25" cy="203.64" r="3.5" fill="#0b6e4f"/>
<circle cx="340.88" cy="202.76" r="3.5" fill="#0b6e4f"/>
<circle cx="342.51" cy="201.89" r="3.5" fill="#0b6e4f"/>
<circle cx="344.14" cy="201.03" r="3.5" fill="#0b6e4f"/>
<circle cx="345.76" cy="200.17" r="3.5" fill="#0b6e4f"/>
<circle cx="347.39" cy="199.31" r="3.5" fill="#0b6e4f"/>
<circle cx="349.02" cy="198.46" r="3.5" fill="#0b6e4f"/>
<circle cx="350.65" cy="197.61" r="3.5" fill="#0b6e4f"/>
<circle cx="352.28" cy="196.77" r="3.5" fill="#0b6e4f"/>
<circle cx="353.91" cy="195.93" r="3.5" fill="#0b6e4f"/>
<circle cx="355.54" cy="195.10" r="3.5" fill="#0b6e4f"/>
<circle cx="357.17" cy="194.27" r="3.5" fill="#0b6e4f"/>
<circle cx="358.80" cy="193.45" r="3.5" fill="#0b6e4f"/>
<circle cx="360.43" cy="192.63" r="3.5" fill="#0b6e4f"/>
<circle cx="362.06" cy="191.81" r="3.5" fill="#0b6e4f"/>
<circle cx="363.68" cy="191.00" r="3.5" fill="#0b6e4f"/>
<circle cx="365.31" cy="190.20" r="3.5" fill="#0b6e4f"/>
<circle cx="366.94" cy="189.40" r="3.5" fill="#0b6e4f"/>
<circle cx="368.57" cy="188.60" r="3.5" fill="#0b6e4f"/>
<circle cx="370.20" cy="187.81" r="3.5" fill="#0b6e4f"/>
<circle cx="371.83" cy="187.02" r="3.5" fill="#0b6e4f"/>
<circle cx="373.46" cy="186.24" r="3.5" fill="#0b6e4f"/>
<circle cx="375.09" cy="185.46" r="3.5" fill="#0b6e4f"/>
<circle cx="376.72" cy="184.68" r="3.5" fill="#0b6e4f"/>
<circle cx="378.35" cy="183.91" r="3.5" fill="#0b6e4f"/>
<circle cx="379.97" cy="183.14" r="3.5" fill="#0b6e4f"/>
<circle cx="381.60" cy="182.37" r="3.5" fill="#0b6e4f"/>
<circle cx="383.23" cy="181.61" r="3.5" fill="#0b6e4f"/>
<circle cx="384.86" cy="180.86" r="3.5" fill="#0b6e4f"/>
<circle cx="386.49" cy="180.11" r="3.5" fill="#0b6e4f"/>
<circle cx="388.12" cy="179.36" r="3.5" fill="#0b6e4f"/>
<circle cx="389.75" cy="178.61" r="3.5" fill="#0b6e4f"/>
<circle cx="391.38" cy="177.87" r="3.5" fill="#0b6e4f"/>
<circle cx="393.01" cy="177.13" r="3.5" fill="#0b6e4f"/>
<circle cx="394.64" cy="176.40" r="3.5" fill="#0b6e4f"/>
<circle cx="396.27" cy="175.67" r="3.5" fill="#0b6e4f"/>
<circle cx="397.89" cy="174.94" r="3.5" fill="#0b6e4f"/>
<circle cx="399.52" cy="174.22" r="3.5" fill="#0b6e4f"/>
<circle cx="401.15" cy="173.50" r="3.5" fill="#0b6e4f"/>
<circle cx="402.78" cy="172.78" r="3.5" fill="#0b6e4f"/>
<circle cx="404.41" cy="172.07" r="3.5" fill="#0b6e4f"/>
<circle cx="406.04" cy="171.36" r="3.5" fill="#0b6e4f"/>
<circle cx="407.67" cy="170.65" r="3.5" fill="#0b6e4f"/>
<circle cx="409.30" cy="169.95" r="3.5" fill="#0b6e4f"/>
<circle cx="410.93" cy="169.25" r="3.5" fill="#0b6e4f"/>
<circle cx="412.56" cy="168.55" r="3.5" fill="#0b6e4f"/>
<circle cx="414.19" cy="167.86" r="3.5" fill="#0b6e4f"/>
<circle cx="415.81" cy="167.17" r="3.5" fill="#0b6e4f"/>
<circle cx="417.44" cy="166.48" r="3.5" fill="#0b6e4f"/>
<circle cx="419.07" cy="165.80" r="3.5" fill="#0b6e4f"/>
<circle cx="420.70" cy="165.12" r="3.5" fill="#0b6e4f"/>
<circle cx="422.33" cy="164.44" r="3.5" fill="#0b6e4f"/>
<circle cx="423.96" cy="163.77" r="3.5" fill="#0b6e4f"/>
<circle cx="425.59" cy="163.10" r="3.5" fill="#0b6e4f"/>
<circle cx="427.22" cy="162.43" r="3.5" fill="#0b6e4f"/>
<circle cx="428.85" cy="161.76" r="3.5" fill="#0b6e4f"/>
<circle cx="430.48" cy="161.10" r="3.5" fill="#0b6e4f"/>
<circle cx="432.11" cy="160.44" r="3.5" fill="#0b6e4f"/>
<circle cx="433.73" cy="159.78" r="3.5" fill="#0b6e4f"/>
<circle cx="435.36" cy="159.13" r="3.5" fill="#0b6e4f"/>
<circle cx="436.99" cy="158.48" r="3.5" fill="#0b6e4f"/>
<circle cx="438.62" cy="157.83" r="3.5" fill="#0b6e4f"/>
<circle cx="440.25" cy="157.19" r="3.5" fill="#0b6e4f"/>
<circle cx="441.88" cy="156.54" r="3.5" fill="#0b6e4f"/>
<circle cx="443.51" cy="155.90" r="3.5" fill="#0b6e4f"/>
<circle cx="445.14" cy="155.27" r="3.5" fill="#0b6e4f"/>
<circle cx="446.77" cy="154.63" r="3.5" fill="#0b6e4f"/>
<circle cx="448.40" cy="154.00" r="3.5" fill="#0b6e4f"/>
<circle cx="450.03" cy="153.37" r="3.5" fill="#0b6e4f"/>
<circle cx="451.65" cy="152.75" r="3.5" fill="#0b6e4f"/>
<circle cx="453.28" cy="152.12" r="3.5" fill="#0b6e4f"/>
<circle cx="454.91" cy="151.50" r="3.5" fill="#0b6e4f"/>
<circle cx="456.54" cy="150.88" r="3.5" fill="#0b6e4f"/>
<circle cx="458.17" cy="150.27" r="3.5" fill="#0b6e4f"/>
<circle cx="459.80" cy="149.65" r="3.5" fill="#0b6e4f"/>
<circle cx="461.43" cy="149.04" r="3.5" fill="#0b6e4f"/>
<circle cx="463.06" cy="148.43" r="3.5" fill="#0b6e4f"/>
<circle cx="464.69" cy="147.83" r="3.5" fill="#0b6e4f"/>
<circle cx="466.32" cy="147.22" r="3.5" fill="#0b6e4f"/>
<circle cx="467.94" cy="146.62" r="3.5" fill="#0b6e4f"/>
<circle cx="469.57" cy="146.03" r="3.5" fill="#0b6e4f"/>
<circle cx="471.20" cy="145.43" r="3.5" fill="#0b6e4f"/>
<circle cx="472.83" cy="144.84" r="3.5" fill="#0b6e4f"/>
<circle cx="474.46" cy="144.24" r="3.5" fill="#0b6e4f"/>
<circle cx="476.09" cy="143.65" r="3.5" fill="#0b6e4f"/>
<circle cx="477.72" cy="143.07" r="3.5" fill="#0b6e4f"/>
<circle cx="479.35" cy="142.48" r="3.5" fill="#0b6e4f"/>
<circle cx="480.98" cy="141.90" r="3.5" fill="#0b6e4f"/>
<circle cx="482.61" cy="141.32" r="3.5" fill="#0b6e4f"/>
<circle cx="484.24" cy="140.74" r="3.5" fill="#0b6e4f"/>
<circle cx="485.86" cy="140.17" r="3.5" fill="#0b6e4f"/>
<circle cx="487.49" cy="139.59" r="3.5" fill="#0b6e4f"/>
<circle cx="489.12" cy="139.02" r="3.5" fill="#0b6e4f"/>
<circle cx="490.75" cy="138.45" r="3.5" fill="#0b6e4f"/>
<circle cx="492.38" cy="137.89" r="3.5" fill="#0b6e4f"/>
<circle cx="494.01" cy="137.32" r="3.5" fill="#0b6e4f"/>
<circle cx="495.64" cy="136.76" r="3.5" fill="#0b6e4f"/>
<circle cx="497.27" cy="136.20" r="3.5" fill="#0b6e4f"/>
<circle cx="498.90" cy="135.64" r="3.5" fill="#0b6e4f"/>
<circle cx="500.53" cy="135.09" r="3.5" fill="#0b6e4f"/>
<circle cx="502.16" cy="134.53" r="3.5" fill="#0b6e4f"/>
<circle cx="503.78" cy="133.98" r="3.5" fill="#0b6e4f"/>
<circle cx="505.41" cy="133.43" r="3.5" fill="#0b6e4f"/>
<circle cx="507.04" cy="132.88" r="3.5" fill="#0b6e4f"/>
<circle cx="508.67" cy="132.34" r="3.5" fill="#0b6e4f"/>
<circle cx="510.30" cy="131.79" r="3.5" fill="#0b6e4f"/>
<circle cx="511.93" cy="131.25" r="3.5" fill="#0b6e4f"/>
<circle cx="513.56" cy="130.71" r="3.5" fill="#0b6e4f"/>
<circle cx="515.19" cy="130.17" r="3.5" fill="#0b6e4f"/>
<circle cx="516.82" cy="129.64" r="3.5" fill="#0b6e4f"/>
<circle cx="518.45" cy="129.10" r="3.5" fill="#0b6e4f"/>
<circle cx="520.08" cy="128.57" r="3.5" fill="#0b6e4f"/>
<circle cx="521.70" cy="128.04" r="3.5" fill="#0b6e4f"/>
<circle cx="523.33" cy="127.51" r="3.5" fill="#0b6e4f"/>
<circle cx="524.96" cy="126.98" r="3.5" fill="#0b6e4f"/>
<circle cx="526.59" cy="126.46" r="3.5" fill="#0b6e4f"/>
<circle cx="528.22" cy="125.94" r="3.5" fill="#0b6e4f"/>
<circle cx="529.85" cy="125.41" r="3.5" fill="#0b6e4f"/>
<circle cx="531.48" cy="124.90" r="3.5" fill="#0b6e4f"/>
<circle cx="533.11" cy="124.38" r="3.5" fill="#0b6e4f"/>
<circle cx="534.74" cy="123.86" r="3.5" fill="#0b6e4f"/>
<circle cx="536.37" cy="123.35" r="3.5" fill="#0b6e4f"/>
<circle cx="537.99" cy="122.84" r="3.5" fill="#0b6e4f"/>
<circle cx="539.62" cy="122.33" r="3.5" fill="#0b6e4f"/>
<circle cx="541.25" cy="121.82" r="3.5" fill="#0b6e4f"/>
<circle cx="542.88" cy="121.31" r="3.5" fill="#0b6e4f"/>
<circle cx="544.51" cy="120.80" r="3.5" fill="#0b6e4f"/>
<circle cx="546.14" cy="120.30" r="3.5" fill="#0b6e4f"/>
<circle cx="547.77" cy="119.80" r="3.5" fill="#0b6e4f"/>
<circle cx="549.40" cy="119.30" r="3.5" fill="#0b6e4f"/>
<circle cx="551.03" cy="118.80" r="3.5" fill="#0b6e4f"/>
<circle cx="552.66" cy="118.30" r="3.5" fill="#0b6e4f"/>
<circle cx="554.29" cy="117.81" r="3.5" fill="#0b6e4f"/>
<circle cx="555.91" cy="117.31" r="3.5" fill="#0b6e4f"/>
<circle cx="557.54" cy="116.82" r="3.5" fill="#0b6e4f"/>
<circle cx="559.17" cy="116.33" r="3.5" fill="#0b6e4f"/>
<circle cx="560.80" cy="115.84" r="3.5" fill="#0b6e4f"/>
<circle cx="562.43" cy="115.36" r="3.5" fill="#0b6e4f"/>
<circle cx="564.06" cy="114.87" r="3.5" fill="#0b6e4f"/>
<circle cx="565.69" cy="114.39" r="3.5" fill="#0b6e4f"/>
<circle cx="567.32" cy="113.90" r="3.5" fill="#0b6e4f"/>
<circle cx="568.95" cy="113.42" r="3.5" fill="#0b6e4f"/>
<circle cx="570.58" cy="112.94" r="3.5" fill="#0b6e4f"/>
<circle cx="572.21" cy="112.47" r="3.5" fill="#0b6e4f"/>
<circle cx="573.83" cy="111.99" r="3.5" fill="#0b6e4f"/>
<circle cx="575.46" cy="111.52" r="3.5" fill="#0b6e4f"/>
<circle cx="577.09" cy="111.04" r="3.5" fill="#0b6e4f"/>
<circle cx="578.72" cy="110.57" r="3.5" fill="#0b6e4f"/>
<circle cx="580.35" cy="110.10" r="3.5" fill="#0b6e4f"/>
<circle cx="581.98" cy="109.63" r="3.5" fill="#0b6e4f"/>
<circle cx="583.61" cy="109.16" r="3.5" fill="#0b6e4f"/>
<circle cx="585.24" cy="108.70" r="3.5" fill="#0b6e4f"/>
<circle cx="586.87" cy="108.23" r="3.5" fill="#0b6e4f"/>
<circle cx="588.50" cy="107.77" r="3.5" fill="#0b6e4f"/>
<circle cx="590.13" cy="107.31" r="3.5" fill="#0b6e4f"/>
<circle cx="591.75" cy="106.85" r="3.5" fill="#0b6e4f"/>
<circle cx="593.38" cy="106.39" r="3.5" fill="#0b6e4f"/>
<circle cx="595.01" cy="105.93" r="3.5" fill="#0b6e4f"/>
<circle cx="596.64" cy="105.48" r="3.5" fill="#0b6e4f"/>
<circle cx="598.27" cy="105.02" r="3.5" fill="#0b6e4f"/>
<circle cx="599.90" cy="104.57" r="3.5" fill="#0b6e4f"/>
<circle cx="601.53" cy="104.12" r="3.5" fill="#0b6e4f"/>
<circle cx="603.16" cy="103.67" r="3.5" fill="#0b6e4f"/>
<circle cx="604.79" cy="103.22" r="3.5" fill="#0b6e4f"/>
<circle cx="606.42" cy="102.77" r="3.5" fill="#0b6e4f"/>
<circle cx="608.05" cy="102.33" r="3.5" fill="#0b6e4f"/>
<circle cx="609.67" cy="101.88" r="3.5" fill="#0b6e4f"/>
<circle cx="611.30" cy="101.44" r="3.5" fill="#0b6e4f"/>
<circle cx="612.93" cy="100.99" r="3.5" fill="#0b6e4f"/>
<circle cx="614.56" cy="100.55" r="3.5" fill="#0b6e4f"/>
<circle cx="616.19" cy="100.11" r="3.5" fill="#0b6e4f"/>
<circle cx="617.82" cy="99.68" r="3.5" fill="#0b6e4f"/>
<circle cx="619.45" cy="99.24" r="3.5" fill="#0b6e4f"/>
<circle cx="621.08" cy="98.80" r="3.5" fill="#0b6e4f"/>
<circle cx="622.71" cy="98.37" r="3.5" fill="#0b6e4f"/>
<circle cx="624.34" cy="97.93" r="3.5" fill="#0b6e4f"/>
<circle cx="625.96" cy="97.50" r="3.5" fill="#0b6e4f"/>
<circle cx="627.59" cy="97.07" r="3.5" fill="#0b6e4f"/>
<circle cx="629.22" cy="96.64" r="3.5" fill="#0b6e4f"/>
<circle cx="630.85" cy="96.21" r="3.5" fill="#0b6e4f"/>
<circle cx="632.48" cy="95.79" r="3.5" fill="#0b6e4f"/>
<circle cx="634.11" cy="95.36" r="3.5" fill="#0b6e4f"/>
<circle cx="635.74" cy="94.94" r="3.5" fill="#0b6e4f"/>
<circle cx="637.37" cy="94.51" r="3.5" fill="#0b6e4f"/>
<circle cx="639.00" cy="94.09" r="3.5" fill="#0b6e4f"/>
<circle cx="640.63" cy="93.67" r="3.5" fill="#0b6e4f"/>
<circle cx="642.26" cy="93.25" r="3.5" fill="#0b6e4f"/>
<circle cx="643.88" cy="92.83" r="3.5" fill="#0b6e4f"/>
<circle cx="645.51" cy="92.41" r="3.5" fill="#0b6e4f"/>
<circle cx="647.14" cy="92.00" r="3.5" fill="#0b6e4f"/>
<circle cx="648.77" cy="91.58" r="3.5" fill="#0b6e4f"/>
<circle cx="650.40" cy="91.17" r="3.5" fill="#0b6e4f"/>
<circle cx="652.03" cy="90.75" r="3.5" fill="#0b6e4f"/>
<circle cx="653.66" cy="90.34" r="3.5" fill="#0b6e4f"/>
<circle cx="655.29" cy="89.93" r="3.5" fill="#0b6e4f"/>
<circle cx="656.92" cy="89.52" r="3.5" fill="#0b6e4f"/>
<circle cx="658.55" cy="89.11" r="3.5" fill="#0b6e4f"/>
<circle cx="660.18" cy="88.71" r="3.5" fill="#0b6e4f"/>
<circle cx="661.80" cy="88.30" r="3.5" fill="#0b6e4f"/>
<circle cx="663.43" cy="87.89" r="3.5" fill="#0b6e4f"/>
<circle cx="665.06" cy="87.49" r="3.5" fill="#0b6e4f"/>
<circle cx="666.69" cy="87.09" r="3.5" fill="#0b6e4f"/>
<circle cx="668.32" cy="86.69" r="3.5" fill="#0b6e4f"/>
<circle cx="669.95" cy="86.29" r="3.5" fill="#0b6e4f"/>
<circle cx="671.58" cy="85.89" r="3.5" fill="#0b6e4f"/>
<circle cx="673.21" cy="85.49" r="3.5" fill="#0b6e4f"/>
<circle cx="674.84" cy="85.09" r="3.5" fill="#0b6e4f"/>
<circle cx="676.47" cy="84.69" r="3.5" fill="#0b6e4f"/>
<circle cx="678.10" cy="84.30" r="3.5" fill="#0b6e4f"/>
<circle cx="679.72" cy="83.90" r="3.5" fill="#0b6e4f"/>
<circle cx="681.35" cy="83.51" r="3.5" fill="#0b6e4f"/>
<circle cx="682.98" cy="83.12" r="3.5" fill="#0b6e4f"/>
<circle cx="684.61" cy="82.73" r="3.5" fill="#0b6e4f"/>
<circle cx="686.24" cy="82.34" r="3.5" fill="#0b6e4f"/>
<circle cx="687.87" cy="81.95" r="3.5" fill="#0b6e4f"/>
<circle cx="689.50" cy="81.56" r="3.5" fill="#0b6e4f"/>
<circle cx="691.13" cy="81.17" r="3.5" fill="#0b6e4f"/>
<circle cx="692.76" cy="80.79" r="3.5" fill="#0b6e4f"/>
<circle cx="694.39" cy="80.40" r="3.5" fill="#0b6e4f"/>
<circle cx="696.02" cy="80.02" r="3.5" fill="#0b6e4f"/>
<circle cx="697.64" cy="79.63" r="3.5" fill="#0b6e4f"/>
<circle cx="699.27" cy="79.25" r="3.5" fill="#0b6e4f"/>
<circle cx="700.90" cy="78.87" r="3.5" fill="#0b6e4f"/>
<circle cx="702.53" cy="78.49" r="3.5" fill="#0b6e4f"/>
<circle cx="704.16" cy="78.11" r="3.5" fill="#0b6e4f"/>
<circle cx="705.79" cy="77.73" r="3.5" fill="#0b6e4f"/>
<circle cx="707.42" cy="77.35" r="3.5" fill="#0b6e4f"/>
<circle cx="709.05" cy="76.98" r="3.5" fill="#0b6e4f"/>
<circle cx="710.68" cy="76.60" r="3.5" fill="#0b6e4f"/>
<circle cx="712.31" cy="76.23" r="3.5" fill="#0b6e4f"/>
<circle cx="713.93" cy="75.85" r="3.5" fill="#0b6e4f"/>
<circle cx="715.56" cy="75.48" r="3.5" fill="#0b6e4f"/>
<circle cx="717.19" cy="75.11" r="3.5" fill="#0b6e4f"/>
<circle cx="718.82" cy="74.74" r="3.5" fill="#0b6e4f"/>
<circle cx="720.45" cy="74.37" r="3.5" fill="#0b6e4f"/>
<circle cx="722.08" cy="74.00" r="3.5" fill="#0b6e4f"/>
<circle cx="723.71" cy="73.63" r="3.5" fill="#0b6e4f"/>
<circle cx="725.34" cy="73.26" r="3.5" fill="#0b6e4f"/>
<circle cx="726.97" cy="72.90" r="3.5" fill="#0b6e4f"/>
<circle cx="728.60" cy="72.53" r="3.5" fill="#0b6e4f"/>
<circle cx="730.23" cy="72.17" r="3.5" fill="#0b6e4f"/>
<circle cx="731.85" cy="71.80" r="3.5" fill="#0b6e4f"/>
<circle cx="733.48" cy="71.44" r="3.5" fill="#0b6e4f"/>
<circle cx="735.11" cy="71.08" r="3.5" fill="#0b6e4f"/>
<circle cx="736.74" cy="70.72" r="3.5" fill="#0b6e4f"/>
<circle cx="738.37" cy="70.36" r="3.5" fill="#0b6e4f"/>
<circle cx="740.00" cy="70.00" r="3.5" fill="#0b6e4f"/>
<line x1="770" y1="100" x2="798" y2="100" stroke="#0b6e4f" stroke-width="4"/>
<text x="808" y="105" font-size="15" font-family="Arial">ln_series(x)</text>
<polyline fill="none" stroke="#c1121f" stroke-width="3" points="90.00,550.00 91.63,541.29 93.26,533.06 94.89,525.26 96.52,517.85 98.15,510.79 99.77,504.05 101.40,497.60 103.03,491.42 104.66,485.48 106.29,479.77 107.92,474.27 109.55,468.97 111.18,463.85 112.81,458.90 114.44,454.11 116.07,449.47 117.69,444.97 119.32,440.60 120.95,436.35 122.58,432.22 124.21,428.20 125.84,424.29 127.47,420.48 129.10,416.76 130.73,413.14 132.36,409.60 133.98,406.14 135.61,402.76 137.24,399.46 138.87,396.22 140.50,393.06 142.13,389.96 143.76,386.92 145.39,383.95 147.02,381.03 148.65,378.17 150.28,375.36 151.90,372.61 153.53,369.90 155.16,367.25 156.79,364.64 158.42,362.07 160.05,359.55 161.68,357.07 163.31,354.63 164.94,352.23 166.57,349.87 168.20,347.54 169.82,345.25 171.45,343.00 173.08,340.77 174.71,338.58 176.34,336.43 177.97,334.30 179.60,332.20 181.23,330.14 182.86,328.10 184.49,326.09 186.12,324.10 187.74,322.14 189.37,320.21 191.00,318.30 192.63,316.41 194.26,314.55 195.89,312.72 197.52,310.90 199.15,309.11 200.78,307.33 202.41,305.58 204.04,303.85 205.66,302.14 207.29,300.45 208.92,298.77 210.55,297.12 212.18,295.48 213.81,293.86 215.44,292.26 217.07,290.68 218.70,289.11 220.33,287.56 221.95,286.02 223.58,284.50 225.21,283.00 226.84,281.51 228.47,280.04 230.10,278.57 231.73,277.13 233.36,275.70 234.99,274.28 236.62,272.87 238.25,271.48 239.87,270.10 241.50,268.74 243.13,267.38 244.76,266.04 246.39,264.71 248.02,263.39 249.65,262.08 251.28,260.79 252.91,259.51 254.54,258.23 256.17,256.97 257.79,255.72 259.42,254.48 261.05,253.25 262.68,252.02 264.31,250.81 265.94,249.61 267.57,248.42 269.20,247.24 270.83,246.06 272.46,244.90 274.09,243.75 275.71,242.60 277.34,241.46 278.97,240.33 280.60,239.21 282.23,238.10 283.86,237.00 285.49,235.90 287.12,234.82 288.75,233.74 290.38,232.66 292.01,231.60 293.63,230.54 295.26,229.49 296.89,228.45 298.52,227.42 300.15,226.39 301.78,225.37 303.41,224.36 305.04,223.35 306.67,222.35 308.30,221.36 309.92,220.37 311.55,219.39 313.18,218.41 314.81,217.45 316.44,216.49 318.07,215.53 319.70,214.58 321.33,213.64 322.96,212.70 324.59,211.77 326.22,210.84 327.84,209.93 329.47,209.01 331.10,208.10 332.73,207.20 334.36,206.30 335.99,205.41 337.62,204.52 339.25,203.64 340.88,202.76 342.51,201.89 344.14,201.03 345.76,200.17 347.39,199.31 349.02,198.46 350.65,197.61 352.28,196.77 353.91,195.93 355.54,195.10 357.17,194.27 358.80,193.45 360.43,192.63 362.06,191.81 363.68,191.00 365.31,190.20 366.94,189.40 368.57,188.60 370.20,187.81 371.83,187.02 373.46,186.24 375.09,185.46 376.72,184.68 378.35,183.91 379.97,183.14 381.60,182.37 383.23,181.61 384.86,180.86 386.49,180.11 388.12,179.36 389.75,178.61 391.38,177.87 393.01,177.13 394.64,176.40 396.27,175.67 397.89,174.94 399.52,174.22 401.15,173.50 402.78,172.78 404.41,172.07 406.04,171.36 407.67,170.65 409.30,169.95 410.93,169.25 412.56,168.55 414.19,167.86 415.81,167.17 417.44,166.48 419.07,165.80 420.70,165.12 422.33,164.44 423.96,163.77 425.59,163.10 427.22,162.43 428.85,161.76 430.48,161.10 432.11,160.44 433.73,159.78 435.36,159.13 436.99,158.48 438.62,157.83 440.25,157.19 441.88,156.54 443.51,155.90 445.14,155.27 446.77,154.63 448.40,154.00 450.03,153.37 451.65,152.75 453.28,152.12 454.91,151.50 456.54,150.88 458.17,150.27 459.80,149.65 461.43,149.04 463.06,148.43 464.69,147.83 466.32,147.22 467.94,146.62 469.57,146.03 471.20,145.43 472.83,144.84 474.46,144.24 476.09,143.65 477.72,143.07 479.35,142.48 480.98,141.90 482.61,141.32 484.24,140.74 485.86,140.17 487.49,139.59 489.12,139.02 490.75,138.45 492.38,137.89 494.01,137.32 495.64,136.76 497.27,136.20 498.90,135.64 500.53,135.09 502.16,134.53 503.78,133.98 505.41,133.43 507.04,132.88 508.67,132.34 510.30,131.79 511.93,131.25 513.56,130.71 515.19,130.17 516.82,129.64 518.45,129.10 520.08,128.57 521.70,128.04 523.33,127.51 524.96,126.98 526.59,126.46 528.22,125.94 529.85,125.41 531.48,124.90 533.11,124.38 534.74,123.86 536.37,123.35 537.99,122.84 539.62,122.33 541.25,121.82 542.88,121.31 544.51,120.80 546.14,120.30 547.77,119.80 549.40,119.30 551.03,118.80 552.66,118.30 554.29,117.81 555.91,117.31 557.54,116.82 559.17,116.33 560.80,115.84 562.43,115.36 564.06,114.87 565.69,114.39 567.32,113.90 568.95,113.42 570.58,112.94 572.21,112.47 573.83,111.99 575.46,111.52 577.09,111.04 578.72,110.57 580.35,110.10 581.98,109.63 583.61,109.16 585.24,108.70 586.87,108.23 588.50,107.77 590.13,107.31 591.75,106.85 593.38,106.39 595.01,105.93 596.64,105.48 598.27,105.02 599.90,104.57 601.53,104.12 603.16,103.67 604.79,103.22 606.42,102.77 608.05,102.33 609.67,101.88 611.30,101.44 612.93,100.99 614.56,100.55 616.19,100.11 617.82,99.68 619.45,99.24 621.08,98.80 622.71,98.37 624.34,97.93 625.96,97.50 627.59,97.07 629.22,96.64 630.85,96.21 632.48,95.79 634.11,95.36 635.74,94.94 637.37,94.51 639.00,94.09 640.63,93.67 642.26,93.25 643.88,92.83 645.51,92.41 647.14,92.00 648.77,91.58 650.40,91.17 652.03,90.75 653.66,90.34 655.29,89.93 656.92,89.52 658.55,89.11 660.18,88.71 661.80,88.30 663.43,87.89 665.06,87.49 666.69,87.09 668.32,86.69 669.95,86.29 671.58,85.89 673.21,85.49 674.84,85.09 676.47,84.69 678.10,84.30 679.72,83.90 681.35,83.51 682.98,83.12 684.61,82.73 686.24,82.34 687.87,81.95 689.50,81.56 691.13,81.17 692.76,80.79 694.39,80.40 696.02,80.02 697.64,79.63 699.27,79.25 700.90,78.87 702.53,78.49 704.16,78.11 705.79,77.73 707.42,77.35 709.05,76.98 710.68,76.60 712.31,76.23 713.93,75.85 715.56,75.48 717.19,75.11 718.82,74.74 720.45,74.37 722.08,74.00 723.71,73.63 725.34,73.26 726.97,72.90 728.60,72.53 730.23,72.17 731.85,71.80 733.48,71.44 735.11,71.08 736.74,70.72 738.37,70.36 740.00,70.00"/>
<circle cx="90.00" cy="550.00" r="3.5" fill="#c1121f"/>
<circle cx="91.63" cy="541.29" r="3.5" fill="#c1121f"/>
<circle cx="93.26" cy="533.06" r="3.5" fill="#c1121f"/>
<circle cx="94.89" cy="525.26" r="3.5" fill="#c1121f"/>
<circle cx="96.52" cy="517.85" r="3.5" fill="#c1121f"/>
<circle cx="98.15" cy="510.79" r="3.5" fill="#c1121f"/>
<circle cx="99.77" cy="504.05" r="3.5" fill="#c1121f"/>
<circle cx="101.40" cy="497.60" r="3.5" fill="#c1121f"/>
<circle cx="103.03" cy="491.42" r="3.5" fill="#c1121f"/>
<circle cx="104.66" cy="485.48" r="3.5" fill="#c1121f"/>
<circle cx="106.29" cy="479.77" r="3.5" fill="#c1121f"/>
<circle cx="107.92" cy="474.27" r="3.5" fill="#c1121f"/>
<circle cx="109.55" cy="468.97" r="3.5" fill="#c1121f"/>
<circle cx="111.18" cy="463.85" r="3.5" fill="#c1121f"/>
<circle cx="112.81" cy="458.90" r="3.5" fill="#c1121f"/>
<circle cx="114.44" cy="454.11" r="3.5" fill="#c1121f"/>
<circle cx="116.07" cy="449.47" r="3.5" fill="#c1121f"/>
<circle cx="117.69" cy="444.97" r="3.5" fill="#c1121f"/>
<circle cx="119.32" cy="440.60" r="3.5" fill="#c1121f"/>
<circle cx="120.95" cy="436.35" r="3.5" fill="#c1121f"/>
<circle cx="122.58" cy="432.22" r="3.5" fill="#c1121f"/>
<circle cx="124.21" cy="428.20" r="3.5" fill="#c1121f"/>
<circle cx="125.84" cy="424.29" r="3.5" fill="#c1121f"/>
<circle cx="127.47" cy="420.48" r="3.5" fill="#c1121f"/>
<circle cx="129.10" cy="416.76" r="3.5" fill="#c1121f"/>
<circle cx="130.73" cy="413.14" r="3.5" fill="#c1121f"/>
<circle cx="132.36" cy="409.60" r="3.5" fill="#c1121f"/>
<circle cx="133.98" cy="406.14" r="3.5" fill="#c1121f"/>
<circle cx="135.61" cy="402.76" r="3.5" fill="#c1121f"/>
<circle cx="137.24" cy="399.46" r="3.5" fill="#c1121f"/>
<circle cx="138.87" cy="396.22" r="3.5" fill="#c1121f"/>
<circle cx="140.50" cy="393.06" r="3.5" fill="#c1121f"/>
<circle cx="142.13" cy="389.96" r="3.5" fill="#c1121f"/>
<circle cx="143.76" cy="386.92" r="3.5" fill="#c1121f"/>
<circle cx="145.39" cy="383.95" r="3.5" fill="#c1121f"/>
<circle cx="147.02" cy="381.03" r="3.5" fill="#c1121f"/>
<circle cx="148.65" cy="378.17" r="3.5" fill="#c1121f"/>
<circle cx="150.28" cy="375.36" r="3.5" fill="#c1121f"/>
<circle cx="151.90" cy="372.61" r="3.5" fill="#c1121f"/>
<circle cx="153.53" cy="369.90" r="3.5" fill="#c1121f"/>
<circle cx="155.16" cy="367.25" r="3.5" fill="#c1121f"/>
<circle cx="156.79" cy="364.64" r="3.5" fill="#c1121f"/>
<circle cx="158.42" cy="362.07" r="3.5" fill="#c1121f"/>
<circle cx="160.05" cy="359.55" r="3.5" fill="#c1121f"/>
<circle cx="161.68" cy="357.07" r="3.5" fill="#c1121f"/>
<circle cx="163.31" cy="354.63" r="3.5" fill="#c1121f"/>
<circle cx="164.94" cy="352.23" r="3.5" fill="#c1121f"/>
<circle cx="166.57" cy="349.87" r="3.5" fill="#c1121f"/>
<circle cx="168.20" cy="347.54" r="3.5" fill="#c1121f"/>
<circle cx="169.82" cy="345.25" r="3.5" fill="#c1121f"/>
<circle cx="171.45" cy="343.00" r="3.5" fill="#c1121f"/>
<circle cx="173.08" cy="340.77" r="3.5" fill="#c1121f"/>
<circle cx="174.71" cy="338.58" r="3.5" fill="#c1121f"/>
<circle cx="176.34" cy="336.43" r="3.5" fill="#c1121f"/>
<circle cx="177.97" cy="334.30" r="3.5" fill="#c1121f"/>
<circle cx="179.60" cy="332.20" r="3.5" fill="#c1121f"/>
<circle cx="181.23" cy="330.14" r="3.5" fill="#c1121f"/>
<circle cx="182.86" cy="328.10" r="3.5" fill="#c1121f"/>
<circle cx="184.49" cy="326.09" r="3.5" fill="#c1121f"/>
<circle cx="186.12" cy="324.10" r="3.5" fill="#c1121f"/>
<circle cx="187.74" cy="322.14" r="3.5" fill="#c1121f"/>
<circle cx="189.37" cy="320.21" r="3.5" fill="#c1121f"/>
<circle cx="191.00" cy="318.30" r="3.5" fill="#c1121f"/>
<circle cx="192.63" cy="316.41" r="3.5" fill="#c1121f"/>
<circle cx="194.26" cy="314.55" r="3.5" fill="#c1121f"/>
<circle cx="195.89" cy="312.72" r="3.5" fill="#c1121f"/>
<circle cx="197.52" cy="310.90" r="3.5" fill="#c1121f"/>
<circle cx="199.15" cy="309.11" r="3.5" fill="#c1121f"/>
<circle cx="200.78" cy="307.33" r="3.5" fill="#c1121f"/>
<circle cx="202.41" cy="305.58" r="3.5" fill="#c1121f"/>
<circle cx="204.04" cy="303.85" r="3.5" fill="#c1121f"/>
<circle cx="205.66" cy="302.14" r="3.5" fill="#c1121f"/>
<circle cx="207.29" cy="300.45" r="3.5" fill="#c1121f"/>
<circle cx="208.92" cy="298.77" r="3.5" fill="#c1121f"/>
<circle cx="210.55" cy="297.12" r="3.5" fill="#c1121f"/>
<circle cx="212.18" cy="295.48" r="3.5" fill="#c1121f"/>
<circle cx="213.81" cy="293.86" r="3.5" fill="#c1121f"/>
<circle cx="215.44" cy="292.26" r="3.5" fill="#c1121f"/>
<circle cx="217.07" cy="290.68" r="3.5" fill="#c1121f"/>
<circle cx="218.70" cy="289.11" r="3.5" fill="#c1121f"/>
<circle cx="220.33" cy="287.56" r="3.5" fill="#c1121f"/>
<circle cx="221.95" cy="286.02" r="3.5" fill="#c1121f"/>
<circle cx="223.58" cy="284.50" r="3.5" fill="#c1121f"/>
<circle cx="225.21" cy="283.00" r="3.5" fill="#c1121f"/>
<circle cx="226.84" cy="281.51" r="3.5" fill="#c1121f"/>
<circle cx="228.47" cy="280.04" r="3.5" fill="#c1121f"/>
<circle cx="230.10" cy="278.57" r="3.5" fill="#c1121f"/>
<circle cx="231.73" cy="277.13" r="3.5" fill="#c1121f"/>
<circle cx="233.36" cy="275.70" r="3.5" fill="#c1121f"/>
<circle cx="234.99" cy="274.28" r="3.5" fill="#c1121f"/>
<circle cx="236.62" cy="272.87" r="3.5" fill="#c1121f"/>
<circle cx="238.25" cy="271.48" r="3.5" fill="#c1121f"/>
<circle cx="239.87" cy="270.10" r="3.5" fill="#c1121f"/>
<circle cx="241.50" cy="268.74" r="3.5" fill="#c1121f"/>
<circle cx="243.13" cy="267.38" r="3.5" fill="#c1121f"/>
<circle cx="244.76" cy="266.04" r="3.5" fill="#c1121f"/>
<circle cx="246.39" cy="264.71" r="3.5" fill="#c1121f"/>
<circle cx="248.02" cy="263.39" r="3.5" fill="#c1121f"/>
<circle cx="249.65" cy="262.08" r="3.5" fill="#c1121f"/>
<circle cx="251.28" cy="260.79" r="3.5" fill="#c1121f"/>
<circle cx="252.91" cy="259.51" r="3.5" fill="#c1121f"/>
<circle cx="254.54" cy="258.23" r="3.5" fill="#c1121f"/>
<circle cx="256.17" cy="256.97" r="3.5" fill="#c1121f"/>
<circle cx="257.79" cy="255.72" r="3.5" fill="#c1121f"/>
<circle cx="259.42" cy="254.48" r="3.5" fill="#c1121f"/>
<circle cx="261.05" cy="253.25" r="3.5" fill="#c1121f"/>
<circle cx="262.68" cy="252.02" r="3.5" fill="#c1121f"/>
<circle cx="264.31" cy="250.81" r="3.5" fill="#c1121f"/>
<circle cx="265.94" cy="249.61" r="3.5" fill="#c1121f"/>
<circle cx="267.57" cy="248.42" r="3.5" fill="#c1121f"/>
<circle cx="269.20" cy="247.24" r="3.5" fill="#c1121f"/>
<circle cx="270.83" cy="246.06" r="3.5" fill="#c1121f"/>
<circle cx="272.46" cy="244.90" r="3.5" fill="#c1121f"/>
<circle cx="274.09" cy="243.75" r="3.5" fill="#c1121f"/>
<circle cx="275.71" cy="242.60" r="3.5" fill="#c1121f"/>
<circle cx="277.34" cy="241.46" r="3.5" fill="#c1121f"/>
<circle cx="278.97" cy="240.33" r="3.5" fill="#c1121f"/>
<circle cx="280.60" cy="239.21" r="3.5" fill="#c1121f"/>
<circle cx="282.23" cy="238.10" r="3.5" fill="#c1121f"/>
<circle cx="283.86" cy="237.00" r="3.5" fill="#c1121f"/>
<circle cx="285.49" cy="235.90" r="3.5" fill="#c1121f"/>
<circle cx="287.12" cy="234.82" r="3.5" fill="#c1121f"/>
<circle cx="288.75" cy="233.74" r="3.5" fill="#c1121f"/>
<circle cx="290.38" cy="232.66" r="3.5" fill="#c1121f"/>
<circle cx="292.01" cy="231.60" r="3.5" fill="#c1121f"/>
<circle cx="293.63" cy="230.54" r="3.5" fill="#c1121f"/>
<circle cx="295.26" cy="229.49" r="3.5" fill="#c1121f"/>
<circle cx="296.89" cy="228.45" r="3.5" fill="#c1121f"/>
<circle cx="298.52" cy="227.42" r="3.5" fill="#c1121f"/>
<circle cx="300.15" cy="226.39" r="3.5" fill="#c1121f"/>
<circle cx="301.78" cy="225.37" r="3.5" fill="#c1121f"/>
<circle cx="303.41" cy="224.36" r="3.5" fill="#c1121f"/>
<circle cx="305.04" cy="223.35" r="3.5" fill="#c1121f"/>
<circle cx="306.67" cy="222.35" r="3.5" fill="#c1121f"/>
<circle cx="308.30" cy="221.36" r="3.5" fill="#c1121f"/>
<circle cx="309.92" cy="220.37" r="3.5" fill="#c1121f"/>
<circle cx="311.55" cy="219.39" r="3.5" fill="#c1121f"/>
<circle cx="313.18" cy="218.41" r="3.5" fill="#c1121f"/>
<circle cx="314.81" cy="217.45" r="3.5" fill="#c1121f"/>
<circle cx="316.44" cy="216.49" r="3.5" fill="#c1121f"/>
<circle cx="318.07" cy="215.53" r="3.5" fill="#c1121f"/>
<circle cx="319.70" cy="214.58" r="3.5" fill="#c1121f"/>
<circle cx="321.33" cy="213.64" r="3.5" fill="#c1121f"/>
<circle cx="322.96" cy="212.70" r="3.5" fill="#c1121f"/>
<circle cx="324.59" cy="211.77" r="3.5" fill="#c1121f"/>
<circle cx="326.22" cy="210.84" r="3.5" fill="#c1121f"/>
<circle cx="327.84" cy="209.93" r="3.5" fill="#c1121f"/>
<circle cx="329.47" cy="209.01" r="3.5" fill="#c1121f"/>
<circle cx="331.10" cy="208.10" r="3.5" fill="#c1121f"/>
<circle cx="332.73" cy="207.20" r="3.5" fill="#c1121f"/>
<circle cx="334.36" cy="206.30" r="3.5" fill="#c1121f"/>
<circle cx="335.99" cy="205.41" r="3.5" fill="#c1121f"/>
<circle cx="337.62" cy="204.52" r="3.5" fill="#c1121f"/>
<circle cx="339.25" cy="203.64" r="3.5" fill="#c1121f"/>
<circle cx="340.88" cy="202.76" r="3.5" fill="#c1121f"/>
<circle cx="342.51" cy="201.89" r="3.5" fill="#c1121f"/>
<circle cx="344.14" cy="201.03" r="3.5" fill="#c1121f"/>
<circle cx="345.76" cy="200.17" r="3.5" fill="#c1121f"/>
<circle cx="347.39" cy="199.31" r="3.5" fill="#c1121f"/>
<circle cx="349.02" cy="198.46" r="3.5" fill="#c1121f"/>
<circle cx="350.65" cy="197.61" r="3.5" fill="#c1121f"/>
<circle cx="352.28" cy="196.77" r="3.5" fill="#c1121f"/>
<circle cx="353.91" cy="195.93" r="3.5" fill="#c1121f"/>
<circle cx="355.54" cy="195.10" r="3.5" fill="#c1121f"/>
<circle cx="357.17" cy="194.27" r="3.5" fill="#c1121f"/>
<circle cx="358.80" cy="193.45" r="3.5" fill="#c1121f"/>
<circle cx="360.43" cy="192.63" r="3.5" fill="#c1121f"/>
<circle cx="362.06" cy="191.81" r="3.5" fill="#c1121f"/>
<circle cx="363.68" cy="191.00" r="3.5" fill="#c1121f"/>
<circle cx="365.31" cy="190.20" r="3.5" fill="#c1121f"/>
<circle cx="366.94" cy="189.40" r="3.5" fill="#c1121f"/>
<circle cx="368.57" cy="188.60" r="3.5" fill="#c1121f"/>
<circle cx="370.20" cy="187.81" r="3.5" fill="#c1121f"/>
<circle cx="371.83" cy="187.02" r="3.5" fill="#c1121f"/>
<circle cx="373.46" cy="186.24" r="3.5" fill="#c1121f"/>
<circle cx="375.09" cy="185.46" r="3.5" fill="#c1121f"/>
<circle cx="376.72" cy="184.68" r="3.5" fill="#c1121f"/>
<circle cx="378.35" cy="183.91" r="3.5" fill="#c1121f"/>
<circle cx="379.97" cy="183.14" r="3.5" fill="#c1121f"/>
<circle cx="381.60" cy="182.37" r="3.5" fill="#c1121f"/>
<circle cx="383.23" cy="181.61" r="3.5" fill="#c1121f"/>
<circle cx="384.86" cy="180.86" r="3.5" fill="#c1121f"/>
<circle cx="386.49" cy="180.11" r="3.5" fill="#c1121f"/>
<circle cx="388.12" cy="179.36" r="3.5" fill="#c1121f"/>
<circle cx="389.75" cy="178.61" r="3.5" fill="#c1121f"/>
<circle cx="391.38" cy="177.87" r="3.5" fill="#c1121f"/>
<circle cx="393.01" cy="177.13" r="3.5" fill="#c1121f"/>
<circle cx="394.64" cy="176.40" r="3.5" fill="#c1121f"/>
<circle cx="396.27" cy="175.67" r="3.5" fill="#c1121f"/>
<circle cx="397.89" cy="174.94" r="3.5" fill="#c1121f"/>
<circle cx="399.52" cy="174.22" r="3.5" fill="#c1121f"/>
<circle cx="401.15" cy="173.50" r="3.5" fill="#c1121f"/>
<circle cx="402.78" cy="172.78" r="3.5" fill="#c1121f"/>
<circle cx="404.41" cy="172.07" r="3.5" fill="#c1121f"/>
<circle cx="406.04" cy="171.36" r="3.5" fill="#c1121f"/>
<circle cx="407.67" cy="170.65" r="3.5" fill="#c1121f"/>
<circle cx="409.30" cy="169.95" r="3.5" fill="#c1121f"/>
<circle cx="410.93" cy="169.25" r="3.5" fill="#c1121f"/>
<circle cx="412.56" cy="168.55" r="3.5" fill="#c1121f"/>
<circle cx="414.19" cy="167.86" r="3.5" fill="#c1121f"/>
<circle cx="415.81" cy="167.17" r="3.5" fill="#c1121f"/>
<circle cx="417.44" cy="166.48" r="3.5" fill="#c1121f"/>
<circle cx="419.07" cy="165.80" r="3.5" fill="#c1121f"/>
<circle cx="420.70" cy="165.12" r="3.5" fill="#c1121f"/>
<circle cx="422.33" cy="164.44" r="3.5" fill="#c1121f"/>
<circle cx="423.96" cy="163.77" r="3.5" fill="#c1121f"/>
<circle cx="425.59" cy="163.10" r="3.5" fill="#c1121f"/>
<circle cx="427.22" cy="162.43" r="3.5" fill="#c1121f"/>
<circle cx="428.85" cy="161.76" r="3.5" fill="#c1121f"/>
<circle cx="430.48" cy="161.10" r="3.5" fill="#c1121f"/>
<circle cx="432.11" cy="160.44" r="3.5" fill="#c1121f"/>
<circle cx="433.73" cy="159.78" r="3.5" fill="#c1121f"/>
<circle cx="435.36" cy="159.13" r="3.5" fill="#c1121f"/>
<circle cx="436.99" cy="158.48" r="3.5" fill="#c1121f"/>
<circle cx="438.62" cy="157.83" r="3.5" fill="#c1121f"/>
<circle cx="440.25" cy="157.19" r="3.5" fill="#c1121f"/>
<circle cx="441.88" cy="156.54" r="3.5" fill="#c1121f"/>
<circle cx="443.51" cy="155.90" r="3.5" fill="#c1121f"/>
<circle cx="445.14" cy="155.27" r="3.5" fill="#c1121f"/>
<circle cx="446.77" cy="154.63" r="3.5" fill="#c1121f"/>
<circle cx="448.40" cy="154.00" r="3.5" fill="#c1121f"/>
<circle cx="450.03" cy="153.37" r="3.5" fill="#c1121f"/>
<circle cx="451.65" cy="152.75" r="3.5" fill="#c1121f"/>
<circle cx="453.28" cy="152.12" r="3.5" fill="#c1121f"/>
<circle cx="454.91" cy="151.50" r="3.5" fill="#c1121f"/>
<circle cx="456.54" cy="150.88" r="3.5" fill="#c1121f"/>
<circle cx="458.17" cy="150.27" r="3.5" fill="#c1121f"/>
<circle cx="459.80" cy="149.65" r="3.5" fill="#c1121f"/>
<circle cx="461.43" cy="149.04" r="3.5" fill="#c1121f"/>
<circle cx="463.06" cy="148.43" r="3.5" fill="#c1121f"/>
<circle cx="464.69" cy="147.83" r="3.5" fill="#c1121f"/>
<circle cx="466.32" cy="147.22" r="3.5" fill="#c1121f"/>
<circle cx="467.94" cy="146.62" r="3.5" fill="#c1121f"/>
<circle cx="469.57" cy="146.03" r="3.5" fill="#c1121f"/>
<circle cx="471.20" cy="145.43" r="3.5" fill="#c1121f"/>
<circle cx="472.83" cy="144.84" r="3.5" fill="#c1121f"/>
<circle cx="474.46" cy="144.24" r="3.5" fill="#c1121f"/>
<circle cx="476.09" cy="143.65" r="3.5" fill="#c1121f"/>
<circle cx="477.72" cy="143.07" r="3.5" fill="#c1121f"/>
<circle cx="479.35" cy="142.48" r="3.5" fill="#c1121f"/>
<circle cx="480.98" cy="141.90" r="3.5" fill="#c1121f"/>
<circle cx="482.61" cy="141.32" r="3.5" fill="#c1121f"/>
<circle cx="484.24" cy="140.74" r="3.5" fill="#c1121f"/>
<circle cx="485.86" cy="140.17" r="3.5" fill="#c1121f"/>
<circle cx="487.49" cy="139.59" r="3.5" fill="#c1121f"/>
<circle cx="489.12" cy="139.02" r="3.5" fill="#c1121f"/>
<circle cx="490.75" cy="138.45" r="3.5" fill="#c1121f"/>
<circle cx="492.38" cy="137.89" r="3.5" fill="#c1121f"/>
<circle cx="494.01" cy="137.32" r="3.5" fill="#c1121f"/>
<circle cx="495.64" cy="136.76" r="3.5" fill="#c1121f"/>
<circle cx="497.27" cy="136.20" r="3.5" fill="#c1121f"/>
<circle cx="498.90" cy="135.64" r="3.5" fill="#c1121f"/>
<circle cx="500.53" cy="135.09" r="3.5" fill="#c1121f"/>
<circle cx="502.16" cy="134.53" r="3.5" fill="#c1121f"/>
<circle cx="503.78" cy="133.98" r="3.5" fill="#c1121f"/>
<circle cx="505.41" cy="133.43" r="3.5" fill="#c1121f"/>
<circle cx="507.04" cy="132.88" r="3.5" fill="#c1121f"/>
<circle cx="508.67" cy="132.34" r="3.5" fill="#c1121f"/>
<circle cx="510.30" cy="131.79" r="3.5" fill="#c1121f"/>
<circle cx="511.93" cy="131.25" r="3.5" fill="#c1121f"/>
<circle cx="513.56" cy="130.71" r="3.5" fill="#c1121f"/>
<circle cx="515.19" cy="130.17" r="3.5" fill="#c1121f"/>
<circle cx="516.82" cy="129.64" r="3.5" fill="#c1121f"/>
<circle cx="518.45" cy="129.10" r="3.5" fill="#c1121f"/>
<circle cx="520.08" cy="128.57" r="3.5" fill="#c1121f"/>
<circle cx="521.70" cy="128.04" r="3.5" fill="#c1121f"/>
<circle cx="523.33" cy="127.51" r="3.5" fill="#c1121f"/>
<circle cx="524.96" cy="126.98" r="3.5" fill="#c1121f"/>
<circle cx="526.59" cy="126.46" r="3.5" fill="#c1121f"/>
<circle cx="528.22" cy="125.94" r="3.5" fill="#c1121f"/>
<circle cx="529.85" cy="125.41" r="3.5" fill="#c1121f"/>
<circle cx="531.48" cy="124.90" r="3.5" fill="#c1121f"/>
<circle cx="533.11" cy="124.38" r="3.5" fill="#c1121f"/>
<circle cx="534.74" cy="123.86" r="3.5" fill="#c1121f"/>
<circle cx="536.37" cy="123.35" r="3.5" fill="#c1121f"/>
<circle cx="537.99" cy="122.84" r="3.5" fill="#c1121f"/>
<circle cx="539.62" cy="122.33" r="3.5" fill="#c1121f"/>
<circle cx="541.25" cy="121.82" r="3.5" fill="#c1121f"/>
<circle cx="542.88" cy="121.31" r="3.5" fill="#c1121f"/>
<circle cx="544.51" cy="120.80" r="3.5" fill="#c1121f"/>
<circle cx="546.14" cy="120.30" r="3.5" fill="#c1121f"/>
<circle cx="547.77" cy="119.80" r="3.5" fill="#c1121f"/>
<circle cx="549.40" cy="119.30" r="3.5" fill="#c1121f"/>
<circle cx="551.03" cy="118.80" r="3.5" fill="#c1121f"/>
<circle cx="552.66" cy="118.30" r="3.5" fill="#c1121f"/>
<circle cx="554.29" cy="117.81" r="3.5" fill="#c1121f"/>
<circle cx="555.91" cy="117.31" r="3.5" fill="#c1121f"/>
<circle cx="557.54" cy="116.82" r="3.5" fill="#c1121f"/>
<circle cx="559.17" cy="116.33" r="3.5" fill="#c1121f"/>
<circle cx="560.80" cy="115.84" r="3.5" fill="#c1121f"/>
<circle cx="562.43" cy="115.36" r="3.5" fill="#c1121f"/>
<circle cx="564.06" cy="114.87" r="3.5" fill="#c1121f"/>
<circle cx="565.69" cy="114.39" r="3.5" fill="#c1121f"/>
<circle cx="567.32" cy="113.90" r="3.5" fill="#c1121f"/>
<circle cx="568.95" cy="113.42" r="3.5" fill="#c1121f"/>
<circle cx="570.58" cy="112.94" r="3.5" fill="#c1121f"/>
<circle cx="572.21" cy="112.47" r="3.5" fill="#c1121f"/>
<circle cx="573.83" cy="111.99" r="3.5" fill="#c1121f"/>
<circle cx="575.46" cy="111.52" r="3.5" fill="#c1121f"/>
<circle cx="577.09" cy="111.04" r="3.5" fill="#c1121f"/>
<circle cx="578.72" cy="110.57" r="3.5" fill="#c1121f"/>
<circle cx="580.35" cy="110.10" r="3.5" fill="#c1121f"/>
<circle cx="581.98" cy="109.63" r="3.5" fill="#c1121f"/>
<circle cx="583.61" cy="109.16" r="3.5" fill="#c1121f"/>
<circle cx="585.24" cy="108.70" r="3.5" fill="#c1121f"/>
<circle cx="586.87" cy="108.23" r="3.5" fill="#c1121f"/>
<circle cx="588.50" cy="107.77" r="3.5" fill="#c1121f"/>
<circle cx="590.13" cy="107.31" r="3.5" fill="#c1121f"/>
<circle cx="591.75" cy="106.85" r="3.5" fill="#c1121f"/>
<circle cx="593.38" cy="106.39" r="3.5" fill="#c1121f"/>
<circle cx="595.01" cy="105.93" r="3.5" fill="#c1121f"/>
<circle cx="596.64" cy="105.48" r="3.5" fill="#c1121f"/>
<circle cx="598.27" cy="105.02" r="3.5" fill="#c1121f"/>
<circle cx="599.90" cy="104.57" r="3.5" fill="#c1121f"/>
<circle cx="601.53" cy="104.12" r="3.5" fill="#c1121f"/>
<circle cx="603.16" cy="103.67" r="3.5" fill="#c1121f"/>
<circle cx="604.79" cy="103.22" r="3.5" fill="#c1121f"/>
<circle cx="606.42" cy="102.77" r="3.5" fill="#c1121f"/>
<circle cx="608.05" cy="102.33" r="3.5" fill="#c1121f"/>
<circle cx="609.67" cy="101.88" r="3.5" fill="#c1121f"/>
<circle cx="611.30" cy="101.44" r="3.5" fill="#c1121f"/>
<circle cx="612.93" cy="100.99" r="3.5" fill="#c1121f"/>
<circle cx="614.56" cy="100.55" r="3.5" fill="#c1121f"/>
<circle cx="616.19" cy="100.11" r="3.5" fill="#c1121f"/>
<circle cx="617.82" cy="99.68" r="3.5" fill="#c1121f"/>
<circle cx="619.45" cy="99.24" r="3.5" fill="#c1121f"/>
<circle cx="621.08" cy="98.80" r="3.5" fill="#c1121f"/>
<circle cx="622.71" cy="98.37" r="3.5" fill="#c1121f"/>
<circle cx="624.34" cy="97.93" r="3.5" fill="#c1121f"/>
<circle cx="625.96" cy="97.50" r="3.5" fill="#c1121f"/>
<circle cx="627.59" cy="97.07" r="3.5" fill="#c1121f"/>
<circle cx="629.22" cy="96.64" r="3.5" fill="#c1121f"/>
<circle cx="630.85" cy="96.21" r="3.5" fill="#c1121f"/>
<circle cx="632.48" cy="95.79" r="3.5" fill="#c1121f"/>
<circle cx="634.11" cy="95.36" r="3.5" fill="#c1121f"/>
<circle cx="635.74" cy="94.94" r="3.5" fill="#c1121f"/>
<circle cx="637.37" cy="94.51" r="3.5" fill="#c1121f"/>
<circle cx="639.00" cy="94.09" r="3.5" fill="#c1121f"/>
<circle cx="640.63" cy="93.67" r="3.5" fill="#c1121f"/>
<circle cx="642.26" cy="93.25" r="3.5" fill="#c1121f"/>
<circle cx="643.88" cy="92.83" r="3.5" fill="#c1121f"/>
<circle cx="645.51" cy="92.41" r="3.5" fill="#c1121f"/>
<circle cx="647.14" cy="92.00" r="3.5" fill="#c1121f"/>
<circle cx="648.77" cy="91.58" r="3.5" fill="#c1121f"/>
<circle cx="650.40" cy="91.17" r="3.5" fill="#c1121f"/>
<circle cx="652.03" cy="90.75" r="3.5" fill="#c1121f"/>
<circle cx="653.66" cy="90.34" r="3.5" fill="#c1121f"/>
<circle cx="655.29" cy="89.93" r="3.5" fill="#c1121f"/>
<circle cx="656.92" cy="89.52" r="3.5" fill="#c1121f"/>
<circle cx="658.55" cy="89.11" r="3.5" fill="#c1121f"/>
<circle cx="660.18" cy="88.71" r="3.5" fill="#c1121f"/>
<circle cx="661.80" cy="88.30" r="3.5" fill="#c1121f"/>
<circle cx="663.43" cy="87.89" r="3.5" fill="#c1121f"/>
<circle cx="665.06" cy="87.49" r="3.5" fill="#c1121f"/>
<circle cx="666.69" cy="87.09" r="3.5" fill="#c1121f"/>
<circle cx="668.32" cy="86.69" r="3.5" fill="#c1121f"/>
<circle cx="669.95" cy="86.29" r="3.5" fill="#c1121f"/>
<circle cx="671.58" cy="85.89" r="3.5" fill="#c1121f"/>
<circle cx="673.21" cy="85.49" r="3.5" fill="#c1121f"/>
<circle cx="674.84" cy="85.09" r="3.5" fill="#c1121f"/>
<circle cx="676.47" cy="84.69" r="3.5" fill="#c1121f"/>
<circle cx="678.10" cy="84.30" r="3.5" fill="#c1121f"/>
<circle cx="679.72" cy="83.90" r="3.5" fill="#c1121f"/>
<circle cx="681.35" cy="83.51" r="3.5" fill="#c1121f"/>
<circle cx="682.98" cy="83.12" r="3.5" fill="#c1121f"/>
<circle cx="684.61" cy="82.73" r="3.5" fill="#c1121f"/>
<circle cx="686.24" cy="82.34" r="3.5" fill="#c1121f"/>
<circle cx="687.87" cy="81.95" r="3.5" fill="#c1121f"/>
<circle cx="689.50" cy="81.56" r="3.5" fill="#c1121f"/>
<circle cx="691.13" cy="81.17" r="3.5" fill="#c1121f"/>
<circle cx="692.76" cy="80.79" r="3.5" fill="#c1121f"/>
<circle cx="694.39" cy="80.40" r="3.5" fill="#c1121f"/>
<circle cx="696.02" cy="80.02" r="3.5" fill="#c1121f"/>
<circle cx="697.64" cy="79.63" r="3.5" fill="#c1121f"/>
<circle cx="699.27" cy="79.25" r="3.5" fill="#c1121f"/>
<circle cx="700.90" cy="78.87" r="3.5" fill="#c1121f"/>
<circle cx="702.53" cy="78.49" r="3.5" fill="#c1121f"/>
<circle cx="704.16" cy="78.11" r="3.5" fill="#c1121f"/>
<circle cx="705.79" cy="77.73" r="3.5" fill="#c1121f"/>
<circle cx="707.42" cy="77.35" r="3.5" fill="#c1121f"/>
<circle cx="709.05" cy="76.98" r="3.5" fill="#c1121f"/>
<circle cx="710.68" cy="76.60" r="3.5" fill="#c1121f"/>
<circle cx="712.31" cy="76.23" r="3.5" fill="#c1121f"/>
<circle cx="713.93" cy="75.85" r="3.5" fill="#c1121f"/>
<circle cx="715.56" cy="75.48" r="3.5" fill="#c1121f"/>
<circle cx="717.19" cy="75.11" r="3.5" fill="#c1121f"/>
<circle cx="718.82" cy="74.74" r="3.5" fill="#c1121f"/>
<circle cx="720.45" cy="74.37" r="3.5" fill="#c1121f"/>
<circle cx="722.08" cy="74.00" r="3.5" fill="#c1121f"/>
<circle cx="723.71" cy="73.63" r="3.5" fill="#c1121f"/>
<circle cx="725.34" cy="73.26" r="3.5" fill="#c1121f"/>
<circle cx="726.97" cy="72.90" r="3.5" fill="#c1121f"/>
<circle cx="728.60" cy="72.53" r="3.5" fill="#c1121f"/>
<circle cx="730.23" cy="72.17" r="3.5" fill="#c1121f"/>
<circle cx="731.85" cy="71.80" r="3.5" fill="#c1121f"/>
<circle cx="733.48" cy="71.44" r="3.5" fill="#c1121f"/>
<circle cx="735.11" cy="71.08" r="3.5" fill="#c1121f"/>
<circle cx="736.74" cy="70.72" r="3.5" fill="#c1121f"/>
<circle cx="738.37" cy="70.36" r="3.5" fill="#c1121f"/>
<circle cx="740.00" cy="70.00" r="3.5" fill="#c1121f"/>
<line x1="770" y1="128" x2="798" y2="128" stroke="#c1121f" stroke-width="4"/>
<text x="808" y="133" font-size="15" font-family="Arial">math.log(x)</text>
</svg>